<?xml version="1.0" encoding="UTF-8"?>
<svg version="1.1" xmlns="http://www.w3.org/2000/svg" width="1024" height="1024">
<path d="M0 0 C337.92 0 675.84 0 1024 0 C1024 337.92 1024 675.84 1024 1024 C686.08 1024 348.16 1024 0 1024 C0 686.08 0 348.16 0 0 Z " fill="#2C2D2D" transform="translate(0,0)"/>
<path d="M0 0 C1.82410086 0.02428457 3.64828725 0.04277169 5.47250366 0.05574036 C10.2456588 0.10509027 15.0135686 0.23249829 19.78466797 0.37689209 C24.66431716 0.51052673 29.54482486 0.56938719 34.42578125 0.63476562 C43.98145616 0.77367321 53.5332587 0.99516321 63.0859375 1.26953125 C62.3509742 4.53611129 61.4055165 6.46891441 59.3125 9.10546875 C58.74039795 9.83306396 58.1682959 10.56065918 57.57885742 11.31030273 C56.96244385 12.08059814 56.34603027 12.85089355 55.7109375 13.64453125 C54.76408081 14.84348022 54.76408081 14.84348022 53.7980957 16.06665039 C52.50975091 17.69736164 51.21881955 19.32603275 49.92529297 20.95263672 C48.28314192 23.02112801 46.65179801 25.09728979 45.02734375 27.1796875 C40.1439997 33.43822613 35.18040251 39.62008452 30.140625 45.75390625 C25.6806439 51.21441543 21.40493993 56.76041731 17.375 62.546875 C16.7557666 63.4349585 16.1365332 64.32304199 15.49853516 65.23803711 C15.03237793 65.90843018 14.5662207 66.57882324 14.0859375 67.26953125 C22.58035547 67.55793146 31.0689363 67.74576401 39.56771278 67.81099892 C43.51620977 67.84434677 47.45818022 67.91017544 51.40429688 68.0546875 C69.96015566 69.46956105 69.96015566 69.46956105 86.11230469 62.46777344 C89.24054258 58.82258037 91.57963138 54.9206985 93.76325989 50.65606689 C96.06265466 46.50721948 99.10275181 42.94006761 102.0859375 39.26953125 C103.24670564 37.78245269 104.40464636 36.2931588 105.55859375 34.80078125 C107.97647314 31.69140323 110.40193472 28.58811919 112.83203125 25.48828125 C113.44522217 24.70308105 114.05841309 23.91788086 114.69018555 23.10888672 C115.8993903 21.56585836 117.11557181 20.02826859 118.33911133 18.49658203 C121.48729812 14.51772856 123.95190604 10.67279317 126.2734375 6.14453125 C127.97169818 3.57502745 129.12101841 2.47594201 132.15625 1.82666016 C138.31140938 1.17725126 145.42363746 0.64737042 151.18463898 3.19911957 C154.31317235 6.6059239 153.63616601 10.43542796 153.59387207 14.89538574 C153.60323201 16.39441964 153.60323201 16.39441964 153.61278105 17.92373705 C153.62879668 21.28858736 153.6160727 24.65272182 153.60351562 28.01757812 C153.60893319 30.42379175 153.61605378 32.83000206 153.62475586 35.23620605 C153.64114133 41.10502059 153.63868699 46.97364782 153.6271053 52.84245723 C153.61807553 57.61585953 153.61684501 62.38920453 153.62120056 67.16261292 C153.62181349 67.84176936 153.62242643 68.5209258 153.62305793 69.22066274 C153.62433685 70.60041711 153.6256337 71.98017147 153.6269483 73.35992581 C153.63836423 86.30986889 153.62522817 99.25969887 153.60374683 112.2096234 C153.58590712 123.30712352 153.58895207 134.4044561 153.60742188 145.50195312 C153.62886644 158.39281742 153.63723155 171.2835822 153.62497282 184.17446184 C153.62369867 185.5516157 153.62244119 186.92876957 153.62120056 188.30592346 C153.62027491 189.32223096 153.62027491 189.32223096 153.61933056 190.35906991 C153.61588597 195.11940413 153.62168738 199.87967499 153.63111877 204.63999939 C153.64356229 211.06191305 153.63459982 217.483586 153.61154175 223.9054718 C153.60626788 226.25840737 153.60774566 228.61136959 153.61659241 230.96429443 C153.62758452 234.185819 153.61373873 237.40634595 153.59387207 240.62780762 C153.6072564 242.01243612 153.6072564 242.01243612 153.62091112 243.42503691 C153.49372413 254.11805561 149.91043623 262.4511773 142.5234375 270.10546875 C135.64519699 276.21211176 127.70948161 279.51537708 118.49062824 279.52680016 C117.17222551 279.53324905 115.85382277 279.53969794 114.49546844 279.54634225 C113.03899619 279.54340019 111.58252432 279.54026477 110.12605286 279.53695679 C108.57366216 279.54069416 107.02127334 279.54529603 105.46888751 279.55068743 C101.20526543 279.56292231 96.94172179 279.56265638 92.67808616 279.56029868 C88.07874395 279.55989063 83.47942692 279.57092859 78.88009644 279.58041382 C69.86946535 279.59702798 60.85886044 279.60252357 51.84821532 279.60363857 C44.5229335 279.60458895 37.1976603 279.60869871 29.87238121 279.61503983 C9.1012998 279.63265415 -11.66976093 279.64187851 -32.44084986 279.64037888 C-33.56066482 279.64029897 -34.68047977 279.64021905 -35.83422852 279.64013672 C-37.51600353 279.64001408 -37.51600353 279.64001408 -39.2317538 279.63988896 C-57.39814939 279.63907623 -75.56446202 279.65821012 -93.73083361 279.68641345 C-112.38645732 279.71514763 -131.04204058 279.72895342 -149.69768697 279.7272259 C-160.17034711 279.72656213 -170.64292033 279.73204842 -181.11556053 279.753582 C-190.03329155 279.7718009 -198.95089624 279.77613536 -207.86863782 279.76256315 C-212.41685418 279.75603682 -216.96482822 279.75590416 -221.51302147 279.77326965 C-225.68127505 279.78902047 -229.8490946 279.78611638 -234.01733772 279.76870139 C-235.52071082 279.76563588 -237.02411648 279.76924692 -238.52745118 279.78042154 C-251.17542067 279.86816758 -262.03008408 277.62139959 -271.9140625 269.26953125 C-281.98309659 259.24037453 -283.33299469 247.91755032 -283.39908886 234.3725872 C-283.39255452 231.05158425 -283.3665523 227.73105356 -283.33984375 224.41015625 C-283.33523834 222.04294087 -283.33232003 219.67572168 -283.33097839 217.3085022 C-283.32216952 211.00897488 -283.28818993 204.70982305 -283.24862671 198.41042328 C-283.21921336 193.22355415 -283.20472042 188.03668963 -283.190485 182.84976006 C-283.08637279 145.31979938 -282.77083404 107.79047729 -281.9140625 70.26953125 C-281.21186081 70.28587112 -280.50965912 70.302211 -279.78617859 70.31904602 C-273.12288373 70.46234883 -266.46211199 70.54176147 -259.79721355 70.55193806 C-256.37126499 70.55935575 -252.94908919 70.59024425 -249.52416992 70.67749023 C-233.81684878 71.86743037 -233.81684878 71.86743037 -219.77539062 66.50854492 C-216.84321725 63.40852157 -214.93073037 60.01419777 -212.9140625 56.26953125 C-211.35906407 54.10161555 -209.70624277 52.04261249 -208.0390625 49.95703125 C-207.21791872 48.8782364 -206.39739758 47.79896658 -205.578125 46.71875 C-202.60480237 42.83584763 -199.51099023 39.05406435 -196.4140625 35.26953125 C-191.5686791 29.34456615 -186.8511312 23.34135616 -182.20703125 17.2578125 C-173.31855688 5.67402563 -173.31855688 5.67402563 -169.9140625 2.26953125 C-167.73867798 2.0345459 -167.73867798 2.0345459 -165.00244141 2.05664062 C-163.97815033 2.06046753 -162.95385925 2.06429443 -161.89852905 2.0682373 C-160.22399155 2.09053406 -160.22399155 2.09053406 -158.515625 2.11328125 C-157.3569693 2.12137817 -156.1983136 2.1294751 -155.00454712 2.13781738 C-151.30743685 2.16850524 -147.61091132 2.21616642 -143.9140625 2.26953125 C-142.16119934 2.29418457 -142.16119934 2.29418457 -140.3729248 2.31933594 C-132.34429763 2.43903557 -124.31676919 2.60008398 -116.2890625 2.76953125 C-113.9023486 2.81794791 -111.51562984 2.86612585 -109.12890625 2.9140625 C-103.39056649 3.02981902 -97.65229225 3.14844978 -91.9140625 3.26953125 C-92.64462531 6.51238032 -93.56513465 8.42539552 -95.65234375 11.03515625 C-96.21888672 11.751875 -96.78542969 12.46859375 -97.36914062 13.20703125 C-98.28856445 14.35171875 -98.28856445 14.35171875 -99.2265625 15.51953125 C-100.51551937 17.14879375 -101.80325909 18.77901983 -103.08984375 20.41015625 C-103.73646973 21.22806641 -104.3830957 22.04597656 -105.04931641 22.88867188 C-107.72712633 26.30763003 -110.32510224 29.78308825 -112.9140625 33.26953125 C-117.84265197 39.89510761 -122.89349355 46.41849666 -128.01953125 52.89257812 C-131.94850097 57.89350329 -135.36142206 62.94057059 -138.9140625 68.26953125 C-116.1440625 68.26953125 -93.3740625 68.26953125 -69.9140625 68.26953125 C-68.9240625 66.28953125 -68.9240625 66.28953125 -67.9140625 64.26953125 C-66.3614628 62.19364795 -64.78685617 60.16387983 -63.1640625 58.14453125 C-62.16485471 56.88712376 -61.16618256 55.62929047 -60.16796875 54.37109375 C-59.6383252 53.7049707 -59.10868164 53.03884766 -58.56298828 52.35253906 C-55.71898934 48.7598534 -52.91133785 45.13900276 -50.1015625 41.51953125 C-48.91279837 39.98955385 -47.72399587 38.45960625 -46.53515625 36.9296875 C-45.64159424 35.77944092 -45.64159424 35.77944092 -44.72998047 34.60595703 C-42.90848942 32.26236072 -41.08537473 29.92003698 -39.26171875 27.578125 C-38.35740112 26.41651855 -38.35740112 26.41651855 -37.43481445 25.23144531 C-36.30991143 23.7865816 -35.18477564 22.34189905 -34.05932617 20.89746094 C-33.26812378 19.88087402 -33.26812378 19.88087402 -32.4609375 18.84375 C-31.92605209 18.18496857 -31.39116669 17.52618713 -30.84007263 16.84744263 C-28.80806144 14.23423288 -28.80806144 14.23423288 -27.0451355 11.02371216 C-20.10068051 -0.502904 -12.6675801 -0.49784123 0 0 Z " fill="#FAF9F7" transform="translate(566.9140625,303.73046875)"/>
<path d="M0 0 C13.0211246 10.14145281 22.43506998 23.93156487 25.66015625 40.27734375 C27.02296903 51.86739121 27.3869518 63.95925501 23.09375 74.96484375 C22.51367188 76.52332031 22.51367188 76.52332031 21.921875 78.11328125 C19.84627529 83.40477928 17.81638897 87.61781311 14.09375 91.96484375 C15.51932621 95.14387869 17.2710652 97.50142807 19.59375 100.08984375 C20.2021875 100.77304687 20.810625 101.45625 21.4375 102.16015625 C22.62679924 103.45604363 23.85001434 104.72110809 25.09375 105.96484375 C24.93330349 109.0584531 24.51386765 110.53065966 22.34375 112.7734375 C21.60125 113.31097656 20.85875 113.84851563 20.09375 114.40234375 C19.28421875 114.99015625 18.4746875 115.57796875 17.640625 116.18359375 C16.80015625 116.77140625 15.9596875 117.35921875 15.09375 117.96484375 C14.29453125 118.55265625 13.4953125 119.14046875 12.671875 119.74609375 C6.99295945 123.78612763 6.99295945 123.78612763 3.59765625 124.4609375 C-0.14662034 123.71909175 -1.10996469 121.67955179 -3.21875 118.58984375 C-4.26482422 117.09324219 -4.26482422 117.09324219 -5.33203125 115.56640625 C-6.90625 112.96484375 -6.90625 112.96484375 -6.90625 110.96484375 C-7.80085938 111.37476563 -8.69546875 111.7846875 -9.6171875 112.20703125 C-10.83830327 112.75183675 -12.05967138 113.29607687 -13.28125 113.83984375 C-14.46460938 114.37351562 -15.64796875 114.9071875 -16.8671875 115.45703125 C-32.22454387 121.62849901 -52.72239545 121.31122046 -67.90625 114.96484375 C-76.18345208 111.34356784 -82.53319493 106.31603586 -88.90625 99.96484375 C-89.54433594 99.34996094 -90.18242187 98.73507812 -90.83984375 98.1015625 C-101.83101334 86.66976696 -106.95616428 69.9240195 -107.34375 54.33984375 C-106.73196215 34.3196137 -99.20702239 17.87630292 -84.90625 3.96484375 C-60.53360449 -16.16011566 -26.0988136 -18.27618533 0 0 Z " fill="#F9F8F6" transform="translate(324.90625,627.03515625)"/>
<path d="M0 0 C2.57777669 0.97599563 4.73850295 1.94041367 7.125 3.25 C8.13699463 3.78137573 8.13699463 3.78137573 9.16943359 4.32348633 C11.45583488 5.53189536 13.72750645 6.76565663 16 8 C17.71842097 8.91598212 19.43718377 9.83132318 21.15625 10.74609375 C31.35681361 16.21147165 41.38582159 21.92929558 51.32226562 27.85986328 C58.27246947 32.00231212 65.2807227 36.03540306 72.31481934 40.03286743 C77.54973278 43.01049142 82.77404217 46.00669946 88 49 C89.02158203 49.58265625 90.04316406 50.1653125 91.09570312 50.765625 C93.86386592 52.35060651 96.62090826 53.95322505 99.375 55.5625 C100.1705127 56.01439697 100.96602539 56.46629395 101.78564453 56.93188477 C107.94227993 60.56904173 112.8771018 64.6313054 115.1875 71.5625 C114.98833756 75.21381141 114.29597622 76.90464378 111.76806641 79.54516602 C109.74507045 81.20976598 107.65711627 82.51199386 105.3984375 83.83984375 C104.06510376 84.62572876 104.06510376 84.62572876 102.70483398 85.42749023 C101.81223877 85.94641846 100.91964355 86.46534668 100 87 C99.2150415 87.45640869 98.43008301 87.91281738 97.62133789 88.38305664 C95.23124335 89.76342266 92.83548346 91.13338704 90.4375 92.5 C89.54474365 93.00990479 88.6519873 93.51980957 87.73217773 94.04516602 C81.74676845 97.45633879 75.73869602 100.82512833 69.72045898 104.17797852 C60.70632041 109.20039032 51.74217426 114.28438203 42.875 119.5625 C35.18694793 124.13608503 27.46414127 128.64096688 19.6875 133.0625 C18.75083496 133.59883057 17.81416992 134.13516113 16.84912109 134.68774414 C-0.72899737 144.63496564 -0.72899737 144.63496564 -9 143 C-11.87029869 141.20606332 -13.49131638 140.01736724 -15 137 C-15.10155317 135.28825253 -15.13946009 133.57257378 -15.14717102 131.85783386 C-15.15432632 130.76847031 -15.16148163 129.67910675 -15.16885376 128.55673218 C-15.17288712 126.75590683 -15.17288712 126.75590683 -15.17700195 124.91870117 C-15.18357315 123.65847641 -15.19014435 122.39825165 -15.19691467 121.09983826 C-15.21432802 117.63692786 -15.22487734 114.17403127 -15.2331202 110.71108794 C-15.23826971 108.54781527 -15.24434547 106.38454688 -15.25063133 104.22127724 C-15.26968445 97.45363886 -15.28391526 90.6860114 -15.2922433 83.91835135 C-15.30201689 76.10485361 -15.32833877 68.29163908 -15.36874419 60.47824115 C-15.39889897 54.43995363 -15.41371155 48.40174733 -15.41702431 42.36338598 C-15.41937557 38.75645948 -15.42834519 35.14983549 -15.45348549 31.54298973 C-15.48108473 27.51830579 -15.47693711 23.49425494 -15.4699707 19.46948242 C-15.48278076 18.27500488 -15.49559082 17.08052734 -15.50878906 15.84985352 C-15.4577717 7.78396755 -15.4577717 7.78396755 -13.15812683 3.84565735 C-8.80252294 0.12068984 -5.62191778 -0.71150368 0 0 Z " fill="#2C2C2C" transform="translate(455,405)"/>
<path d="M0 0 C1.15757812 -0.00257813 2.31515625 -0.00515625 3.5078125 -0.0078125 C4.72210937 -0.00007812 5.93640625 0.00765625 7.1875 0.015625 C8.40179687 0.00789062 9.61609375 0.00015625 10.8671875 -0.0078125 C12.60355469 -0.00394531 12.60355469 -0.00394531 14.375 0 C15.44105469 0.00225586 16.50710938 0.00451172 17.60546875 0.00683594 C20.1875 0.265625 20.1875 0.265625 22.1875 2.265625 C22.42800903 4.17654419 22.42800903 4.17654419 22.41455078 6.53173828 C22.41439972 7.41250031 22.41424866 8.29326233 22.41409302 9.20071411 C22.40377045 10.15283783 22.39344788 11.10496155 22.3828125 12.0859375 C22.3799826 13.05973358 22.37715271 14.03352966 22.37423706 15.03683472 C22.36301913 18.15488849 22.3379117 21.27265768 22.3125 24.390625 C22.30247228 26.50129794 22.29334607 28.61197538 22.28515625 30.72265625 C22.26307458 35.90374335 22.22958129 41.08466385 22.1875 46.265625 C22.8475 46.265625 23.5075 46.265625 24.1875 46.265625 C24.46045898 45.68562744 24.73341797 45.10562988 25.01464844 44.50805664 C26.17443849 42.29059793 27.46009253 40.39233269 28.953125 38.38671875 C29.50701904 37.63914307 30.06091309 36.89156738 30.6315918 36.12133789 C31.2275415 35.32332764 31.82349121 34.52531738 32.4375 33.703125 C33.69931554 32.00267598 34.96103125 30.30215289 36.22265625 28.6015625 C36.87379395 27.7259668 37.52493164 26.85037109 38.19580078 25.94824219 C41.43551468 21.58467558 44.65428674 17.20572324 47.875 12.828125 C49.02448325 11.26673834 50.17420564 9.70552769 51.32421875 8.14453125 C52.04677856 7.16335327 52.04677856 7.16335327 52.78393555 6.16235352 C53.24711182 5.53643311 53.71028809 4.9105127 54.1875 4.265625 C54.57760254 3.5336792 54.96770508 2.8017334 55.36962891 2.04760742 C57.74268861 -0.27860299 59.63137485 -0.18895513 62.86369324 -0.18756104 C63.98884087 -0.15659332 63.98884087 -0.15659332 65.13671875 -0.125 C65.90933548 -0.11934021 66.68195221 -0.11368042 67.47798157 -0.10784912 C69.94428629 -0.08546827 72.40913492 -0.03527203 74.875 0.015625 C76.54750505 0.03568794 78.22003289 0.05393908 79.89257812 0.0703125 C83.99144596 0.11440169 88.08922617 0.18343825 92.1875 0.265625 C91.47404878 4.41392605 90.51355717 6.49472966 87.75 9.703125 C84.48192547 13.63874584 81.39320539 17.65446107 78.4375 21.828125 C78.02532227 22.40900879 77.61314453 22.98989258 77.18847656 23.58837891 C74.82609341 26.92746488 72.47798537 30.27654814 70.12890625 33.625 C69.61191162 34.36065186 69.09491699 35.09630371 68.56225586 35.85424805 C67.52857134 37.32570176 66.49680155 38.79850259 65.46704102 40.27270508 C62.25596635 44.84394995 58.90853654 49.22137865 55.19921875 53.40625 C53.76609931 56.04009113 54.38857178 57.4218524 55.1875 60.265625 C56.39975643 62.3117732 56.39975643 62.3117732 57.99609375 64.19921875 C58.57302979 64.92302734 59.14996582 65.64683594 59.74438477 66.39257812 C60.67528931 67.53629883 60.67528931 67.53629883 61.625 68.703125 C62.91617668 70.32514221 64.20522541 71.94885552 65.4921875 73.57421875 C66.12608398 74.37327637 66.75998047 75.17233398 67.41308594 75.99560547 C69.78113566 79.02506699 72.03607695 82.12245828 74.25 85.265625 C74.63712158 85.81516846 75.02424316 86.36471191 75.4230957 86.9309082 C76.23268614 88.08103148 77.04200531 89.23134573 77.85107422 90.38183594 C79.91180815 93.28658987 82.01138868 96.16285446 84.10668945 99.04272461 C86.81629583 102.77226297 89.50713048 106.5150297 92.1875 110.265625 C92.64060547 110.89936035 93.09371094 111.5330957 93.56054688 112.18603516 C94.74066829 113.8493881 95.90235287 115.52577941 97.0625 117.203125 C97.69929687 118.11964844 98.33609375 119.03617188 98.9921875 119.98046875 C99.38664063 120.73457031 99.78109375 121.48867188 100.1875 122.265625 C99.6925 123.750625 99.6925 123.750625 99.1875 125.265625 C94.38652607 125.54002119 89.5902134 125.73820693 84.78320312 125.86987305 C83.15316211 125.92479834 81.52365326 125.99957931 79.89550781 126.09545898 C66.4421448 126.8671703 66.4421448 126.8671703 61.02099609 123.01635742 C58.46451051 120.22761596 56.30738523 117.39534743 54.1875 114.265625 C53.16413115 112.99538689 52.13199112 111.73209188 51.0859375 110.48046875 C50.24041056 109.39140816 49.3991517 108.29901856 48.5625 107.203125 C47.6397263 106.01140629 46.71654649 104.82000194 45.79296875 103.62890625 C45.35259277 103.05865723 44.9122168 102.4884082 44.45849609 101.90087891 C42.62492391 99.54181888 40.75058267 97.21634752 38.875 94.890625 C36.45518264 91.86710062 34.04792459 88.83582761 31.6875 85.765625 C30.96046875 84.82203125 30.96046875 84.82203125 30.21875 83.859375 C29.1875 82.265625 29.1875 82.265625 29.1875 80.265625 C28.383125 81.07 27.57875 81.874375 26.75 82.703125 C25.5625 83.890625 24.375 85.078125 23.1875 86.265625 C23.03973034 88.99098505 22.95247632 91.69424791 22.90625 94.421875 C22.88784058 95.23934204 22.86943115 96.05680908 22.85046387 96.89904785 C22.79152723 99.52116491 22.73878563 102.14334777 22.6875 104.765625 C22.62006395 108.2136869 22.54639576 111.66152962 22.46875 115.109375 C22.45517456 115.91040649 22.44159912 116.71143799 22.4276123 117.53674316 C22.30030181 123.15282319 22.30030181 123.15282319 21.1875 124.265625 C16.71418042 124.51942734 12.2296654 124.45085221 7.75 124.453125 C5.85024414 124.47149414 5.85024414 124.47149414 3.91210938 124.49023438 C2.70490234 124.49216797 1.49769531 124.49410156 0.25390625 124.49609375 C-1.4175647 124.50225708 -1.4175647 124.50225708 -3.12280273 124.50854492 C-5.8125 124.265625 -5.8125 124.265625 -7.8125 122.265625 C-8.06418228 120.15103149 -8.06418228 120.15103149 -8.06646729 117.48291016 C-8.07210693 116.47335266 -8.07774658 115.46379517 -8.08355713 114.42364502 C-8.07950867 113.31188904 -8.07546021 112.20013306 -8.07128906 111.0546875 C-8.0747937 109.88717957 -8.07829834 108.71967163 -8.08190918 107.51678467 C-8.08921754 104.31020392 -8.08748455 101.10378753 -8.08115101 97.89720917 C-8.0760966 94.54556638 -8.0807809 91.19392798 -8.08392334 87.84228516 C-8.08756462 82.21319602 -8.08275966 76.58415931 -8.07324219 70.95507812 C-8.06235729 64.44191854 -8.06588276 57.92888416 -8.076895 51.41572762 C-8.08596328 45.82927947 -8.08725541 40.24286907 -8.08201766 34.65641594 C-8.07889542 31.31741449 -8.07849555 27.97845968 -8.08509064 24.63946533 C-8.09014634 20.91841051 -8.08245891 17.19759911 -8.07128906 13.4765625 C-8.07533752 12.36480652 -8.07938599 11.25305054 -8.08355713 10.10760498 C-8.07791748 9.09804749 -8.07227783 8.08848999 -8.06646729 7.04833984 C-8.06571323 6.1678598 -8.06495918 5.28737976 -8.06418228 4.38021851 C-7.4828883 -0.50371876 -4.06850832 0.0086093 0 0 Z " fill="#FAF9F6" transform="translate(692.8125,617.734375)"/>
<path d="M0 0 C1.41249023 -0.0299707 1.41249023 -0.0299707 2.85351562 -0.06054688 C3.76681641 -0.05990234 4.68011719 -0.05925781 5.62109375 -0.05859375 C6.44923584 -0.06044678 7.27737793 -0.0622998 8.13061523 -0.06420898 C11.56858157 0.64505924 13.10830335 1.93251442 15.5625 4.4375 C16.05156476 7.13306592 16.21581877 9.20236009 16.15844727 11.89306641 C16.16453506 13.01101593 16.16453506 13.01101593 16.17074585 14.15155029 C16.17625954 15.76771686 16.17026428 17.3839546 16.15408516 19.00004959 C16.12863909 21.5660023 16.1334727 24.13035008 16.14598083 26.69638062 C16.16673642 32.15192981 16.14707545 37.60698355 16.125 43.0625 C16.10383781 49.36660518 16.09948562 55.67019022 16.12550163 61.97428513 C16.12883869 64.48816812 16.10771528 67.0010373 16.08509827 69.51480103 C16.06773225 78.83914843 16.11867398 87.87972972 23 94.9375 C30.09473268 99.09051425 37.09849457 99.50040683 45.1328125 97.9375 C50.27527648 96.40347685 53.89446004 94.36754282 57.5625 90.4375 C60.21004885 85.2961283 60.99637696 80.29302642 60.93139648 74.5402832 C60.93516296 73.79612152 60.93892944 73.05195984 60.94281006 72.2852478 C60.94919912 70.68497789 60.94895368 69.08466995 60.94262505 67.4843998 C60.9334522 64.94915763 60.94380635 62.41464511 60.95924377 59.87944031 C60.99918694 52.67736812 61.00054069 45.47535798 60.99829102 38.27319336 C60.99823991 33.85475724 61.01740149 29.43671948 61.04762459 25.01839256 C61.05843507 22.52488226 61.04633311 20.03213607 61.03379822 17.53865051 C61.04270216 16.00793707 61.05277638 14.47722984 61.06420898 12.9465332 C61.04959373 11.91234001 61.04959373 11.91234001 61.03468323 10.85725403 C61.0867745 7.35886802 61.53091395 5.48725288 63.42381287 2.50564575 C66.17953651 -0.15918449 67.56408536 -0.17136467 71.3515625 -0.12109375 C72.45757812 -0.11400391 73.56359375 -0.10691406 74.703125 -0.09960938 C75.85296875 -0.06673828 77.0028125 -0.03386719 78.1875 0 C79.92386719 0.00870117 79.92386719 0.00870117 81.6953125 0.01757812 C90.26775989 0.14275989 90.26775989 0.14275989 92.5625 2.4375 C92.78205482 5.08284457 92.87706343 7.62523495 92.88476562 10.2734375 C92.89966034 11.48871628 92.89966034 11.48871628 92.91485596 12.72854614 C92.94417678 15.4232318 92.95772815 18.11768062 92.96875 20.8125 C92.98026235 22.69466148 92.99177769 24.57682293 93.0032959 26.45898438 C93.02434854 30.42025849 93.03600722 34.38145122 93.04296875 38.34277344 C93.05383722 43.37024652 93.10165446 48.39660818 93.15891266 53.42373657 C93.19657821 57.32249828 93.20659893 61.22100598 93.2096405 65.11993408 C93.21562056 66.96956338 93.23142456 68.81919226 93.25801086 70.66864014 C93.46499311 86.19896848 91.63798692 102.376696 80.7578125 114.39453125 C68.32054345 125.96871579 53.98946819 129.84055445 37.3125 129.8125 C35.80514282 129.81008301 35.80514282 129.81008301 34.26733398 129.80761719 C21.81094728 129.60333205 8.67084386 126.58588133 -0.9296875 118.11328125 C-13.99342253 103.59425967 -14.75865342 87.36711261 -14.7734375 68.97265625 C-14.77987236 67.0884135 -14.78660122 65.20417173 -14.79360962 63.31993103 C-14.80552801 59.39059121 -14.80929539 55.46133902 -14.80810547 51.53198242 C-14.80790102 46.49230678 -14.83535641 41.45318709 -14.86964989 36.41364384 C-14.89184028 32.53180844 -14.89594566 28.65010944 -14.89488602 24.76821709 C-14.89724794 22.90902198 -14.90610462 21.04982344 -14.92155075 19.19069099 C-14.94107917 16.60076159 -14.93542847 14.01206709 -14.92333984 11.42211914 C-14.93457886 10.65380264 -14.94581787 9.88548615 -14.95739746 9.09388733 C-14.89578546 3.91699994 -14.89578546 3.91699994 -12.55104065 1.4637146 C-8.55157088 -0.47819944 -4.36389394 -0.03272177 0 0 Z " fill="#F9F9F6" transform="translate(385.4375,616.5625)"/>
<path d="M0 0 C1.15757812 -0.00257813 2.31515625 -0.00515625 3.5078125 -0.0078125 C4.72210937 -0.00007812 5.93640625 0.00765625 7.1875 0.015625 C8.40179687 0.00789062 9.61609375 0.00015625 10.8671875 -0.0078125 C12.60355469 -0.00394531 12.60355469 -0.00394531 14.375 0 C15.44105469 0.00225586 16.50710938 0.00451172 17.60546875 0.00683594 C20.1875 0.265625 20.1875 0.265625 22.1875 2.265625 C22.42800903 4.17654419 22.42800903 4.17654419 22.41455078 6.53173828 C22.41439972 7.41250031 22.41424866 8.29326233 22.41409302 9.20071411 C22.40377045 10.15283783 22.39344788 11.10496155 22.3828125 12.0859375 C22.3799826 13.05973358 22.37715271 14.03352966 22.37423706 15.03683472 C22.36301913 18.15488849 22.3379117 21.27265768 22.3125 24.390625 C22.30247228 26.50129794 22.29334607 28.61197538 22.28515625 30.72265625 C22.26307458 35.90374335 22.22958129 41.08466385 22.1875 46.265625 C25.12797866 43.39828483 27.86159287 40.57358767 30.28125 37.25390625 C30.83055176 36.50439697 31.37985352 35.7548877 31.94580078 34.98266602 C32.52056152 34.18916748 33.09532227 33.39566895 33.6875 32.578125 C34.59411377 31.33857056 34.59411377 31.33857056 35.51904297 30.07397461 C38.65166363 25.78361093 41.75834205 21.4750861 44.8515625 17.15625 C45.43357422 16.34502686 46.01558594 15.53380371 46.61523438 14.69799805 C47.72193522 13.15272401 48.82498298 11.60482515 49.92382812 10.05395508 C50.42591797 9.35165771 50.92800781 8.64936035 51.4453125 7.92578125 C51.8798877 7.31355713 52.31446289 6.70133301 52.76220703 6.07055664 C53.23255371 5.4749292 53.70290039 4.87930176 54.1875 4.265625 C54.75758789 3.53891602 55.32767578 2.81220703 55.91503906 2.06347656 C59.09186657 -0.44986226 61.27475769 -0.20642992 65.2890625 -0.16015625 C65.96673676 -0.15686813 66.64441101 -0.15358002 67.34262085 -0.15019226 C68.76985329 -0.13979844 70.19704435 -0.11989394 71.62402344 -0.09106445 C73.81208431 -0.04688339 75.9990477 -0.02961068 78.1875 -0.01757812 C88.8268322 0.0852911 88.8268322 0.0852911 91.1875 1.265625 C90.57935453 4.44706568 89.5470953 6.43754197 87.58984375 9.00390625 C87.04328125 9.7304541 86.49671875 10.45700195 85.93359375 11.20556641 C85.03833984 12.37998291 85.03833984 12.37998291 84.125 13.578125 C78.49692417 21.0827167 73.0332681 28.68229366 67.6875 36.390625 C67.02999756 37.33719971 66.37249512 38.28377441 65.69506836 39.2590332 C64.44478312 41.06500077 63.19982729 42.87467279 61.9609375 44.68847656 C60.77794972 46.40758711 59.57463215 48.1128822 58.3515625 49.80371094 C57.79210937 50.59293945 57.23265625 51.38216797 56.65625 52.1953125 C56.15544922 52.88608887 55.65464844 53.57686523 55.13867188 54.28857422 C53.99371873 56.21627322 53.99371873 56.21627322 54.43212891 58.34057617 C55.61232596 61.34828586 57.32834952 63.99298445 59.0625 66.703125 C59.48595703 67.3734375 59.90941406 68.04375 60.34570312 68.734375 C64.63716945 75.48565582 69.04076693 82.16456617 73.43133545 88.85159302 C74.68528676 90.76225266 75.93788073 92.67379432 77.18994141 94.58569336 C77.59713409 95.20745956 78.00432678 95.82922577 78.42385864 96.46983337 C79.22940494 97.70009417 80.0348066 98.93044969 80.84005737 100.16090393 C83.10530839 103.62056919 85.38499312 107.07023889 87.671875 110.515625 C88.59480242 111.93160626 89.51679127 113.34820008 90.4375 114.765625 C90.84935547 115.37470703 91.26121094 115.98378906 91.68554688 116.61132812 C93.41790537 119.31480983 94.27243821 120.71080295 93.77636719 123.95117188 C93.58204102 124.71494141 93.38771484 125.47871094 93.1875 126.265625 C89.00669399 126.38965621 84.82687498 126.48016101 80.64477539 126.5402832 C79.22368709 126.56535647 77.80272687 126.59942499 76.38208008 126.64282227 C74.33382538 126.70380358 72.28728117 126.73190262 70.23828125 126.75390625 C68.39230347 126.79318237 68.39230347 126.79318237 66.5090332 126.83325195 C62.2479128 126.10505607 60.90991348 124.54431373 58.1875 121.265625 C57.68903564 120.66693604 57.19057129 120.06824707 56.67700195 119.45141602 C56.26409912 118.89639404 55.85119629 118.34137207 55.42578125 117.76953125 C54.95164795 117.13547363 54.47751465 116.50141602 53.98901367 115.84814453 C53.49763916 115.18153809 53.00626465 114.51493164 52.5 113.828125 C51.71943237 112.77794189 51.71943237 112.77794189 50.9230957 111.70654297 C45.92213756 104.9558208 41.03645382 98.12593488 36.1875 91.265625 C35.46949219 90.26789063 34.75148438 89.27015625 34.01171875 88.2421875 C33.36847656 87.34242188 32.72523438 86.44265625 32.0625 85.515625 C31.50304687 84.73703125 30.94359375 83.9584375 30.3671875 83.15625 C29.1875 81.265625 29.1875 81.265625 29.1875 79.265625 C25.59021189 82.10093508 25.59021189 82.10093508 23.72235107 86.16705322 C23.56387036 88.44362235 23.54768578 90.67914277 23.5859375 92.9609375 C23.57793121 93.79019745 23.56992493 94.6194574 23.56167603 95.47384644 C23.53865369 98.11327434 23.54805826 100.75115624 23.5625 103.390625 C23.56634569 106.03694371 23.56294288 108.68258486 23.54190063 111.3288269 C23.52979535 112.97260469 23.53250746 114.61657301 23.55160522 116.26028442 C23.52499866 121.67827574 23.52499866 121.67827574 22.03588867 124.26977539 C19.38566664 125.69762583 17.27957223 125.63734268 14.27734375 125.62890625 C13.12298828 125.62826172 11.96863281 125.62761719 10.77929688 125.62695312 C9.57337891 125.61083984 8.36746094 125.59472656 7.125 125.578125 C5.31032227 125.58295898 5.31032227 125.58295898 3.45898438 125.58789062 C-5.54560075 125.53252425 -5.54560075 125.53252425 -7.8125 123.265625 C-8.06418228 121.13541412 -8.06418228 121.13541412 -8.06646729 118.44494629 C-8.07210693 117.42697464 -8.07774658 116.40900299 -8.08355713 115.36018372 C-8.07950867 114.239077 -8.07546021 113.11797028 -8.07128906 111.96289062 C-8.0747937 110.78562912 -8.07829834 109.60836761 -8.08190918 108.39543152 C-8.08921766 105.16199259 -8.08748447 101.92871664 -8.08115101 98.69528008 C-8.0760967 95.31560796 -8.08078087 91.93594694 -8.08392334 88.55627441 C-8.08756465 82.88010699 -8.08275958 77.20399157 -8.07324219 71.52783203 C-8.06235729 64.96014123 -8.06588275 58.39257459 -8.076895 51.8248868 C-8.08596319 46.19173 -8.08725546 40.55861063 -8.08201766 34.92544889 C-8.07889537 31.55849897 -8.07849567 28.19160746 -8.08509064 24.82466125 C-8.09014624 21.07247413 -8.08245905 17.32052843 -8.07128906 13.56835938 C-8.07533752 12.44725266 -8.07938599 11.32614594 -8.08355713 10.17106628 C-8.07791748 9.15309464 -8.07227783 8.13512299 -8.06646729 7.08630371 C-8.06571323 6.19844933 -8.06495918 5.31059494 -8.06418228 4.39583588 C-7.48575151 -0.49993794 -4.08237076 0.00863863 0 0 Z " fill="#F9F8F6" transform="translate(608.8125,770.734375)"/>
<path d="M0 0 C1.18070068 0.00845947 1.18070068 0.00845947 2.38525391 0.01708984 C15.69441533 0.29192634 29.74086015 4.57695206 39.25 14.3125 C44.07442723 20.68680361 47.63210798 26.09717834 47.25 34.3125 C38.22860877 36.96222557 29.71019282 38.96016507 20.25 39.3125 C19.693125 38.384375 19.13625 37.45625 18.5625 36.5 C15.60336955 32.42119858 12.96254044 30.88334681 8.25 29.3125 C-1.01953926 28.34438888 -1.01953926 28.34438888 -9.5625 31.1875 C-12.3724973 33.91721166 -12.68778238 34.75254145 -13.125 38.6875 C-13.10808279 42.37077213 -13.10808279 42.37077213 -10.6875 44.5625 C-5.30030716 47.77189148 -0.01397341 49.61669488 6.0625 51.0625 C20.60309547 54.75223624 37.93321416 59.39767042 46.03125 72.984375 C51.02603139 82.52568816 51.83601687 92.98277234 49.55859375 103.5078125 C47.53258024 109.59433007 44.53840518 114.5627505 40.25 119.3125 C39.79496094 119.84488281 39.33992187 120.37726563 38.87109375 120.92578125 C31.33937503 128.53616022 17.96483581 132.00467704 7.5859375 132.48046875 C-9.7295419 132.5658508 -24.88884064 129.91510911 -37.91015625 117.5 C-42.60666664 111.9160386 -45.91886882 104.96444846 -45.8125 97.625 C-45.80347656 96.81675781 -45.79445313 96.00851562 -45.78515625 95.17578125 C-45.77355469 94.56089844 -45.76195312 93.94601562 -45.75 93.3125 C-41.59400718 91.82285197 -37.61428496 90.84214274 -33.25 90.1875 C-32.1671875 90.01992188 -31.084375 89.85234375 -29.96875 89.6796875 C-23.90088843 88.98747999 -23.90088843 88.98747999 -20.75 89.3125 C-19.4921875 90.8515625 -19.4921875 90.8515625 -18.625 92.9375 C-15.23369423 98.93093975 -10.22448359 101.39049729 -3.75 103.3125 C-0.7637079 103.75111806 2.17109617 103.90373913 5.1875 103.9375 C6.2698291 103.95393555 6.2698291 103.95393555 7.37402344 103.97070312 C12.24389595 103.83877757 14.83958164 102.76821803 18.25 99.3125 C20.02622803 95.76004394 19.25710019 92.05501427 18.25 88.3125 C12.70293378 81.37866722 3.04280951 80.2953993 -5.17578125 78.1640625 C-32.10688409 71.09493305 -32.10688409 71.09493305 -38.40234375 60.54296875 C-43.72620244 50.3837937 -45.95541302 39.00812848 -43.06640625 27.6171875 C-38.5024594 16.74704022 -30.06622401 7.7468952 -19.21875 3.13671875 C-12.69021947 0.95709859 -6.85207918 -0.05189846 0 0 Z " fill="#F8F8F5" transform="translate(754.75,767.6875)"/>
<path d="M0 0 C16.49964721 14.43411761 16.49964721 14.43411761 17.61328125 23.91796875 C17.62109375 25.85546875 17.62109375 25.85546875 17.37109375 28.85546875 C12.93625454 30.4271375 8.54392402 31.54613365 3.93359375 32.48046875 C2.04833984 32.87105469 2.04833984 32.87105469 0.125 33.26953125 C-3.63215342 33.85597559 -6.84554355 34.30164149 -10.62890625 33.85546875 C-12.59765625 31.80859375 -12.59765625 31.80859375 -14.12890625 29.10546875 C-17.50268272 23.74533399 -20.2697923 21.30850673 -26.3515625 19.28125 C-36.82032122 17.32396921 -46.68921858 18.42872586 -55.87890625 23.73046875 C-61.87308648 28.36233529 -65.50048581 34.35953297 -66.62890625 41.85546875 C-67.52867423 54.96327632 -67.8412256 69.52007013 -59.19140625 80.359375 C-51.61932707 87.60964081 -44.88748698 89.30835936 -34.765625 89.140625 C-27.44964703 88.80951751 -20.83372381 86.06028631 -15.62890625 80.85546875 C-14.87652817 79.60689868 -14.12668351 78.35679971 -13.37890625 77.10546875 C-11.21244474 73.96287995 -11.21244474 73.96287995 -8.72558594 73.50512695 C-8.00790039 73.53437256 -7.29021484 73.56361816 -6.55078125 73.59375 C-5.75317383 73.6232373 -4.95556641 73.65272461 -4.13378906 73.68310547 C-0.11841707 73.95940689 3.87340003 74.32635053 7.87109375 74.79296875 C8.680625 74.87998047 9.49015625 74.96699219 10.32421875 75.05664062 C16.24254597 75.72692097 16.24254597 75.72692097 17.37109375 76.85546875 C17.37109375 87.45691165 11.29181564 95.4313102 4.296875 103.015625 C-8.06889917 114.82957964 -24.37888659 119.31407364 -41.1015625 119.28930664 C-54.30608992 118.9818983 -66.12192865 114.897415 -76.62890625 106.85546875 C-77.33144531 106.345 -78.03398438 105.83453125 -78.7578125 105.30859375 C-90.52460669 96.00568797 -97.56212703 81.32005473 -100.62890625 66.85546875 C-102.16673563 46.96101782 -100.07379352 30.62235777 -88.62890625 13.85546875 C-88.19191406 13.21480469 -87.75492188 12.57414063 -87.3046875 11.9140625 C-78.43643333 0.43593172 -63.18825942 -8.86898988 -48.8984375 -10.8984375 C-30.90200076 -12.25300801 -14.55427243 -11.87265314 0 0 Z " fill="#F8F8F5" transform="translate(649.62890625,627.14453125)"/>
<path d="M0 0 C7.81754341 6.86076944 17.56346558 15.5680381 18.625 26.6015625 C18.3671875 28.921875 18.3671875 28.921875 16.3671875 30.921875 C14.50708008 31.51611328 14.50708008 31.51611328 12.26171875 31.9921875 C11.44251953 32.16621094 10.62332031 32.34023438 9.77929688 32.51953125 C8.92142578 32.69355469 8.06355469 32.86757813 7.1796875 33.046875 C6.34115234 33.22863281 5.50261719 33.41039062 4.63867188 33.59765625 C-0.1476319 34.59153354 -4.7319754 35.48090585 -9.6328125 34.921875 C-11.453125 33.3125 -11.453125 33.3125 -12.7578125 31.171875 C-16.84502901 25.10524735 -20.76448913 22.36352289 -27.82421875 20.46484375 C-38.45215796 18.41020738 -46.97136184 20.18318117 -55.9453125 26.109375 C-64.09003535 34.63292217 -66.10359831 44.86301727 -66.06225586 56.26977539 C-65.75528461 67.40139565 -62.05041027 76.96757128 -54.1484375 84.921875 C-47.84298097 89.93490876 -40.43564803 91.73818042 -32.453125 91.3515625 C-23.73546788 90.02338759 -18.22754023 87.05679428 -12.8828125 80.046875 C-9.83288862 76.37712788 -8.59336213 75.05321546 -3.8046875 74.3984375 C0.31506232 74.5337027 4.3106075 75.21780662 8.3671875 75.921875 C10.34494444 76.10451112 12.32402021 76.27410642 14.3046875 76.421875 C18.23459081 76.78927831 18.23459081 76.78927831 19.3671875 77.921875 C18.91784002 88.70621448 11.51095844 97.37741178 4.3671875 104.921875 C-7.16775013 115.11236888 -20.74671433 119.10237918 -35.7578125 119.171875 C-37.39363281 119.2028125 -37.39363281 119.2028125 -39.0625 119.234375 C-54.67285111 119.30906568 -69.22453669 113.11712664 -80.453125 102.23828125 C-93.50444416 88.36833096 -99.32829402 71.91939355 -98.96679688 52.95800781 C-98.29290419 35.29708852 -92.50625292 19.17643223 -79.5703125 6.734375 C-58.39748432 -11.58041301 -23.50593168 -18.5536434 0 0 Z " fill="#F9F8F5" transform="translate(565.6328125,779.078125)"/>
<path d="M0 0 C0.73528427 -0.00686325 1.47056854 -0.0137265 2.22813416 -0.02079773 C4.66017943 -0.03910808 7.09158219 -0.03522229 9.52368164 -0.02954102 C11.21375235 -0.03410097 12.90382119 -0.03940598 14.59388733 -0.04542542 C18.13721241 -0.05436494 21.68031222 -0.05192411 25.22363281 -0.04199219 C29.76462865 -0.03050423 34.30484669 -0.05070656 38.84574032 -0.07990932 C42.33648113 -0.09825573 45.82703504 -0.09798197 49.31781197 -0.0922718 C50.99196018 -0.09211838 52.66612089 -0.09818003 54.34022331 -0.11056328 C56.68173873 -0.12544184 59.02181101 -0.11482084 61.36328125 -0.09765625 C62.05484314 -0.10732422 62.74640503 -0.11699219 63.45892334 -0.12695312 C66.81318993 -0.0754634 68.49306846 0.20772811 71.17741394 2.28852844 C73.07184853 4.84296864 73.23790655 6.16430714 73.20727539 9.31811523 C73.2034082 10.24366211 73.19954102 11.16920898 73.19555664 12.12280273 C73.15881836 13.56139648 73.15881836 13.56139648 73.12133789 15.02905273 C73.12004883 15.99584961 73.11875977 16.96264648 73.11743164 17.95874023 C73.02737794 25.12301269 73.02737794 25.12301269 70.74633789 27.40405273 C68.56967163 27.64456177 68.56967163 27.64456177 65.83764648 27.63110352 C64.8167392 27.63095245 63.79583191 27.63080139 62.74398804 27.63064575 C61.63874786 27.62032318 60.53350769 27.61000061 59.39477539 27.59936523 C58.26560699 27.59653534 57.1364386 27.59370544 55.97305298 27.59078979 C52.35570818 27.57956736 48.73860824 27.55445895 45.12133789 27.52905273 C42.67342479 27.51902561 40.22550782 27.50989929 37.77758789 27.50170898 C31.7670003 27.48132029 25.75694415 27.44217497 19.74633789 27.40405273 C20.07633789 35.65405273 20.40633789 43.90405273 20.74633789 52.40405273 C23.6712207 52.44143555 26.59610352 52.47881836 29.60961914 52.51733398 C32.43936688 52.56353252 35.26898146 52.61477224 38.09863281 52.66650391 C40.0666496 52.69977759 42.03476238 52.72780188 44.00292969 52.75048828 C46.83057601 52.78398951 49.65734072 52.83630237 52.48461914 52.89233398 C53.36596024 52.89872391 54.24730133 52.90511383 55.15534973 52.91169739 C55.97597397 52.93149155 56.79659821 52.95128571 57.64208984 52.97167969 C58.72463799 52.98833427 58.72463799 52.98833427 59.82905579 53.00532532 C62.29764509 53.51870529 63.2038978 54.44457801 64.74633789 56.40405273 C65.37763608 59.87371336 65.20975991 63.38337152 65.18383789 66.90405273 C65.20381836 67.86698242 65.22379883 68.82991211 65.24438477 69.82202148 C65.24341797 71.2084082 65.24341797 71.2084082 65.24243164 72.62280273 C65.24428467 73.4677832 65.2461377 74.31276367 65.24804688 75.18334961 C64.74633789 77.40405273 64.74633789 77.40405273 63.28662109 79.18457031 C59.43347295 81.03430361 55.82408725 80.77347734 51.60571289 80.69702148 C50.72353088 80.69277664 49.84134888 80.6885318 48.93243408 80.68415833 C46.12008906 80.66739112 43.30846563 80.62974272 40.49633789 80.59155273 C38.58749409 80.57650336 36.67863903 80.56281539 34.76977539 80.55053711 C30.095019 80.51749401 25.42080071 80.46572528 20.74633789 80.40405273 C20.76204834 81.69093994 20.77775879 82.97782715 20.79394531 84.30371094 C20.84819565 89.07269038 20.88267019 93.84164248 20.91113281 98.61083984 C20.92623061 100.67599065 20.94671063 102.74110934 20.97265625 104.80615234 C21.00899584 107.77246012 21.02605419 110.73834444 21.03930664 113.70483398 C21.0547905 114.62992264 21.07027435 115.55501129 21.08622742 116.50813293 C21.08645401 117.36879868 21.0866806 118.22946442 21.08691406 119.11621094 C21.0935759 119.87343948 21.10023773 120.63066803 21.10710144 121.4108429 C20.64440116 123.96725069 19.79163201 124.84538514 17.74633789 126.40405273 C15.05078125 126.77636719 15.05078125 126.77636719 11.83618164 126.76733398 C10.68182617 126.76668945 9.5274707 126.76604492 8.33813477 126.76538086 C7.1322168 126.74926758 5.92629883 126.7331543 4.68383789 126.71655273 C2.86916016 126.72138672 2.86916016 126.72138672 1.01782227 126.72631836 C-7.98676285 126.67095199 -7.98676285 126.67095199 -10.25366211 124.40405273 C-10.5081377 122.27663517 -10.5081377 122.27663517 -10.51435852 119.59010315 C-10.52144333 118.57357666 -10.52852814 117.55705017 -10.53582764 116.50971985 C-10.53335022 115.39018417 -10.5308728 114.2706485 -10.52832031 113.1171875 C-10.53343124 111.94153229 -10.53854218 110.76587708 -10.54380798 109.55459595 C-10.55534965 106.32522929 -10.55777381 103.0960213 -10.55524468 99.86663938 C-10.55417664 97.17271634 -10.55905408 94.47881712 -10.5638501 91.78489918 C-10.57495431 85.43031189 -10.57537768 79.07578371 -10.56933594 72.72119141 C-10.5632951 66.16143174 -10.57560768 59.60188651 -10.59690601 53.04216343 C-10.61450882 47.41408339 -10.62052544 41.78607169 -10.61726826 36.15796512 C-10.61545303 32.79485716 -10.61811514 29.43190214 -10.6319828 26.06881905 C-10.64426803 22.31914704 -10.63760275 18.56997601 -10.62597656 14.8203125 C-10.6336203 13.70280106 -10.64126404 12.58528961 -10.6491394 11.43391418 C-10.64212509 10.41456787 -10.63511078 9.39522156 -10.62788391 8.34498596 C-10.62805165 7.45805337 -10.62821939 6.57112078 -10.62839222 5.65731144 C-9.63975051 -0.28740844 -5.06756876 -0.03289052 0 0 Z " fill="#F8F8F5" transform="translate(230.253662109375,770.595947265625)"/>
<path d="M0 0 C3.656679 2.68786582 6.79370257 5.79884087 10 9 C11.32210402 10.17937689 12.65464049 11.34722219 14 12.5 C26.9970086 23.84659481 39.72017479 35.53814759 51.80859375 47.8515625 C54.56677806 50.55566476 57.49002848 53.01615963 60.50390625 55.4296875 C62.25234009 57.26485827 62.47916902 58.56319918 63 61 C51.20959286 65.00537024 39.40729855 68.87090121 27.43603516 72.29931641 C23.48989994 73.4343543 19.5497925 74.58998125 15.60864258 75.7421875 C7.14383779 78.21676086 7.14383779 78.21676086 3.53417969 79.25537109 C1.98649078 79.71013518 0.44371338 80.18269815 -1.08886719 80.68603516 C-4.84679794 81.89778023 -7.22467247 82.16205269 -11 81 C-13.13720703 79.28515625 -13.13720703 79.28515625 -15.2578125 77.0625 C-16.04285156 76.25409668 -16.82789063 75.44569336 -17.63671875 74.61279297 C-18.45785156 73.75057129 -19.27898438 72.88834961 -20.125 72 C-26.7988688 65.15523358 -33.41898307 58.82970606 -41 53 C-42.83779576 51.50547069 -44.67102351 50.0053093 -46.5 48.5 C-47.4075 47.7575 -48.315 47.015 -49.25 46.25 C-52 44 -54.75 41.75 -57.5 39.5 C-58.84578125 38.39978516 -58.84578125 38.39978516 -60.21875 37.27734375 C-62.15854685 35.68899886 -64.09585618 34.09761327 -66.03125 32.50390625 C-67.0109375 31.69824219 -67.990625 30.89257812 -69 30.0625 C-69.886875 29.33160156 -70.77375 28.60070312 -71.6875 27.84765625 C-74.05900021 25.89854558 -74.05900021 25.89854558 -77 24 C-76.505 22.515 -76.505 22.515 -76 21 C-73.875 20.0078125 -73.875 20.0078125 -71 19.125 C-69.35257812 18.61259766 -69.35257812 18.61259766 -67.671875 18.08984375 C-66.46015625 17.73019531 -65.2484375 17.37054688 -64 17 C-62.76765625 16.63003906 -61.5353125 16.26007813 -60.265625 15.87890625 C-54.8972019 14.28022632 -49.51627837 12.72487678 -44.13378906 11.17431641 C-41.04689886 10.28503354 -37.96081431 9.39300867 -34.875 8.5 C-33.84729492 8.20367676 -32.81958984 7.90735352 -31.76074219 7.60205078 C-26.58892964 6.09753855 -21.46912012 4.51957518 -16.38989258 2.72705078 C-5.15551084 -1.22334156 -5.15551084 -1.22334156 0 0 Z " fill="#F9F8F6" transform="translate(548,154)"/>
<path d="M0 0 C2.37897054 1.80969174 4.35488678 3.92922477 6.375 6.125 C9.70462835 9.65048884 13.01992539 13.07523826 16.7109375 16.2265625 C22.18172694 20.93361976 27.18619071 26.11539178 32.25 31.25 C34.18975917 33.21648813 36.13291537 35.1795299 38.078125 37.140625 C38.92793945 38.00204102 39.77775391 38.86345703 40.65332031 39.75097656 C42.90529413 42.01039622 42.90529413 42.01039622 45.30761719 43.67871094 C45.86610352 44.11473633 46.42458984 44.55076172 47 45 C47 45.66 47 46.32 47 47 C47.56203125 47.23847656 48.1240625 47.47695312 48.703125 47.72265625 C51.50521414 49.28096092 53.47893407 51.17756675 55.75 53.4375 C56.94882812 54.61119141 56.94882812 54.61119141 58.171875 55.80859375 C60 58 60 58 60 61 C47.69147757 64.70518805 35.37599188 68.38613017 23.04541016 72.01733398 C17.67571456 73.60113768 12.31458824 75.2036153 6.97265625 76.87890625 C6.05355469 77.16443359 5.13445312 77.44996094 4.1875 77.74414062 C2.4856116 78.27471447 0.78619149 78.81329793 -0.91015625 79.36132812 C-7.35677712 81.36066673 -7.35677712 81.36066673 -11 80 C-13.183848 78.0068054 -15.21845553 76.012351 -17.25 73.875 C-18.41612713 72.67789078 -19.58408614 71.48256318 -20.75390625 70.2890625 C-21.31480957 69.71575195 -21.87571289 69.14244141 -22.45361328 68.55175781 C-24.87623717 66.12071937 -27.44052304 63.8844616 -30.0546875 61.6640625 C-32.35232932 59.69860986 -34.57873123 57.66270129 -36.8125 55.625 C-40.25378205 52.51471149 -43.76321298 49.53521688 -47.375 46.625 C-51.94661151 42.93031256 -56.27382649 39.04649328 -60.56298828 35.03369141 C-64.58911985 31.29561257 -68.82516955 27.92849052 -73.234375 24.65625 C-74.10835938 23.83640625 -74.10835938 23.83640625 -75 23 C-75 22.01 -75 21.02 -75 20 C-68.0611791 17.56460992 -61.09290188 15.43077524 -54 13.5 C-47.97073435 11.85690196 -42.04099737 10.06615278 -36.12890625 8.03515625 C-31.50696095 6.50604825 -26.83762903 5.1483228 -22.16064453 3.79833984 C-17.45780807 2.44083102 -12.80076438 0.98929658 -8.17578125 -0.6171875 C-5.04291098 -1.16839268 -3.06429037 -0.93344176 0 0 Z " fill="#F9F8F6" transform="translate(403,198)"/>
<path d="M0 0 C1.05960937 -0.00386719 2.11921875 -0.00773438 3.2109375 -0.01171875 C4.86996094 0.00568359 4.86996094 0.00568359 6.5625 0.0234375 C8.22152344 0.00603516 8.22152344 0.00603516 9.9140625 -0.01171875 C10.97367187 -0.00785156 12.03328125 -0.00398437 13.125 0 C14.58099609 0.00507568 14.58099609 0.00507568 16.06640625 0.01025391 C19.03214167 0.4714745 19.72299587 1.08856524 21.5625 3.3984375 C21.87251064 6.42400418 21.99993325 9.24783414 21.99487305 12.27612305 C22.0050647 13.18364319 22.01525635 14.09116333 22.02575684 15.02618408 C22.05597833 18.02923686 22.06516678 21.03197115 22.07421875 24.03515625 C22.09105864 26.1159624 22.10920794 28.19675834 22.12861633 30.27754211 C22.1761973 35.75689502 22.20595431 41.23620652 22.23205566 46.71569824 C22.26182035 52.30599142 22.30836469 57.89614179 22.35351562 63.48632812 C22.43964087 74.45695668 22.50694513 85.42761455 22.5625 96.3984375 C23.13435028 96.40652435 23.70620056 96.41461121 24.29537964 96.42294312 C30.23246999 96.50881698 36.16921981 96.60831223 42.10595703 96.71582031 C44.3233469 96.75416884 46.54080024 96.78901121 48.75830078 96.8203125 C51.94066089 96.86583576 55.12258182 96.92385069 58.3046875 96.984375 C59.30055878 96.99592621 60.29643005 97.00747742 61.32247925 97.01937866 C62.24328278 97.03924835 63.1640863 97.05911804 64.11279297 97.07958984 C65.33190872 97.09957535 65.33190872 97.09957535 66.57565308 97.1199646 C68.5625 97.3984375 68.5625 97.3984375 70.5625 99.3984375 C70.82128906 101.796875 70.82128906 101.796875 70.828125 104.7734375 C70.83070313 105.84078125 70.83328125 106.908125 70.8359375 108.0078125 C70.82820313 109.12671875 70.82046875 110.245625 70.8125 111.3984375 C70.82410156 113.07679688 70.82410156 113.07679688 70.8359375 114.7890625 C70.83335937 115.85640625 70.83078125 116.92375 70.828125 118.0234375 C70.82586914 119.00570312 70.82361328 119.98796875 70.82128906 121 C70.5625 123.3984375 70.5625 123.3984375 68.5625 125.3984375 C66.16431631 125.59654833 63.88162639 125.67128368 61.48242188 125.65722656 C60.75382462 125.6607312 60.02522736 125.66423584 59.27455139 125.66784668 C56.8600214 125.67666758 54.4457831 125.6708137 52.03125 125.6640625 C50.35738061 125.66540905 48.6835116 125.6673495 47.00964355 125.66986084 C43.49906699 125.67281258 39.9885921 125.66851288 36.47802734 125.65917969 C31.97176776 125.64778509 27.46574639 125.65434429 22.95949554 125.66632462 C19.50232133 125.67354188 16.04520385 125.67125591 12.58802795 125.66606903 C10.92619295 125.66473216 9.26435285 125.66638155 7.6025238 125.67102814 C5.28240253 125.67609123 2.96267033 125.66838648 0.64257812 125.65722656 C-0.04839462 125.66127502 -0.73936737 125.66532349 -1.45127869 125.66949463 C-6.20897075 125.62696675 -6.20897075 125.62696675 -8.4375 123.3984375 C-8.69197559 121.28663731 -8.69197559 121.28663731 -8.69819641 118.62245178 C-8.70528122 117.61433945 -8.71236603 116.60622711 -8.71966553 115.56756592 C-8.71718811 114.45738098 -8.71471069 113.34719604 -8.7121582 112.20336914 C-8.71726913 111.0374675 -8.72238007 109.87156586 -8.72764587 108.67033386 C-8.74159518 104.79970223 -8.74058108 100.92924759 -8.73828125 97.05859375 C-8.74118428 95.05516778 -8.74409144 93.05174174 -8.747688 91.0483169 C-8.7587921 84.74646717 -8.75921562 78.44467705 -8.75317383 72.14282227 C-8.74713302 65.63759347 -8.75944552 59.13258091 -8.7807439 52.62738901 C-8.79834697 47.0460176 -8.80436329 41.46471509 -8.80110615 35.88331693 C-8.79929096 32.54814487 -8.80325927 29.2131618 -8.81582069 25.87800789 C-8.8281063 22.15946749 -8.82144043 18.44143222 -8.80981445 14.72290039 C-8.81745819 13.61473969 -8.82510193 12.50657898 -8.83297729 11.36483765 C-8.82596298 10.35390549 -8.81894867 9.34297333 -8.8117218 8.30140686 C-8.81188954 7.42184861 -8.81205729 6.54229036 -8.81223011 5.63607883 C-7.94986092 0.48657817 -4.67072985 0.01628242 0 0 Z " fill="#F9F8F6" transform="translate(330.4375,770.6015625)"/>
<path d="M0 0 C3.25696469 1.0487715 5.16275332 2.57524662 7.76953125 4.7890625 C8.73117187 5.60246094 9.6928125 6.41585937 10.68359375 7.25390625 C14.47092906 10.57656849 18.18769121 13.97083473 21.89453125 17.3828125 C24.58190759 19.79534354 27.33418569 22.0841246 30.14453125 24.3515625 C53.08640856 43.02671012 53.08640856 43.02671012 55.015625 56.4296875 C55.31909161 68.63975574 48.30593811 75.76508273 40.9609375 84.75390625 C37.57697406 88.9060884 34.32219849 93.14926003 31.08203125 97.4140625 C29.99744469 98.83206862 28.91280963 100.25003764 27.828125 101.66796875 C25.71731205 104.4324196 23.62978317 107.2125743 21.5546875 110.00390625 C20.58498068 111.2867194 19.61494478 112.56928388 18.64453125 113.8515625 C18.21197021 114.44525635 17.77940918 115.0389502 17.33374023 115.65063477 C15.37629859 118.2128331 14.01227274 119.71472846 10.95703125 120.8515625 C10.19390625 120.8515625 9.43078125 120.8515625 8.64453125 120.8515625 C6.64453125 118.8515625 6.64453125 118.8515625 6.41989136 117.05554199 C6.43069733 116.32758423 6.4415033 115.59962646 6.45263672 114.84960938 C6.45824615 114.0172879 6.46385559 113.18496643 6.46963501 112.3274231 C6.48352264 111.4175766 6.49741028 110.5077301 6.51171875 109.5703125 C6.51727583 107.60986897 6.52008996 105.64941621 6.52050781 103.68896484 C6.52183716 102.65487488 6.5231665 101.62078491 6.52453613 100.55535889 C6.49218662 79.84733208 4.34023898 61.240878 -1.34960938 41.37304688 C-9.25695372 13.68966464 -9.25695372 13.68966464 -7.35546875 4.8515625 C-3.98573701 -0.25117414 -3.98573701 -0.25117414 0 0 Z " fill="#F8F8F6" transform="translate(277.35546875,236.1484375)"/>
<path d="M0 0 C1.64645508 -0.0299707 1.64645508 -0.0299707 3.32617188 -0.06054688 C4.38255859 -0.05990234 5.43894531 -0.05925781 6.52734375 -0.05859375 C7.492771 -0.06044678 8.45819824 -0.0622998 9.45288086 -0.06420898 C13.06564531 0.63035842 13.93249713 1.39497408 16.0625 4.4375 C16.6793703 8.17136783 16.60832359 11.88316808 16.58007812 15.66015625 C16.5870874 16.80523651 16.59409668 17.95031677 16.60131836 19.13009644 C16.61894298 22.92030998 16.60725892 26.70977868 16.59375 30.5 C16.59644361 33.13029117 16.60032493 35.76058138 16.60534668 38.39086914 C16.61262172 43.9055185 16.60303937 49.41995351 16.58398438 54.93457031 C16.5622156 61.30812667 16.56926709 67.6811712 16.59129 74.05471516 C16.61163571 80.18863522 16.609474 86.32232854 16.59776306 92.45626831 C16.5950911 95.06542024 16.59838192 97.6745852 16.60768127 100.28372192 C16.61781833 103.92778326 16.60238374 107.57085619 16.58007812 111.21484375 C16.58817505 112.29756561 16.59627197 113.38028748 16.60461426 114.49581909 C16.52182165 121.78164224 16.52182165 121.78164224 14.19325256 125.10656738 C11.4835551 126.79912653 9.7145382 126.95385533 6.52734375 126.96875 C5.47095703 126.97390625 4.41457031 126.9790625 3.32617188 126.984375 C2.22853516 126.96890625 1.13089844 126.9534375 0 126.9375 C-1.10150391 126.95296875 -2.20300781 126.9684375 -3.33789062 126.984375 C-4.39298828 126.97921875 -5.44808594 126.9740625 -6.53515625 126.96875 C-7.49945557 126.96423828 -8.46375488 126.95972656 -9.45727539 126.95507812 C-11.9375 126.4375 -11.9375 126.4375 -13.56870461 124.71630955 C-15.17109846 122.04859863 -15.3144308 120.55103725 -15.31845093 117.45896912 C-15.3269104 116.45652161 -15.33536987 115.4540741 -15.34408569 114.42124939 C-15.338013 113.32760574 -15.33194031 112.2339621 -15.32568359 111.10717773 C-15.33094055 109.95073761 -15.33619751 108.79429749 -15.34161377 107.60281372 C-15.35483135 103.77543686 -15.34606964 99.94847493 -15.3359375 96.12109375 C-15.33795758 93.46598287 -15.34086366 90.81088468 -15.34463501 88.15577698 C-15.35009098 82.58988943 -15.3429044 77.02412136 -15.32861328 71.45825195 C-15.31227893 65.02226905 -15.3175814 58.58657115 -15.3340925 52.15059513 C-15.34770241 46.62437386 -15.34962973 41.09823842 -15.34177649 35.57200581 C-15.33709822 32.2715295 -15.33765639 28.97121667 -15.34638596 25.67074394 C-15.35397854 21.99310723 -15.34242662 18.31602313 -15.32568359 14.63842773 C-15.33175629 13.54275986 -15.33782898 12.44709198 -15.34408569 11.31822205 C-15.33562622 10.31859436 -15.32716675 9.31896667 -15.31845093 8.28904724 C-15.31731985 7.41946097 -15.31618877 6.54987471 -15.31502342 5.65393734 C-14.03968449 -1.83356851 -5.82504542 -0.03749298 0 0 Z " fill="#F6F6F3" transform="translate(432.9375,770.5625)"/>
<path d="M0 0 C1.05638672 0.00386719 2.11277344 0.00773438 3.20117188 0.01171875 C4.84762695 0.04845703 4.84762695 0.04845703 6.52734375 0.0859375 C8.17959961 0.08787109 8.17959961 0.08787109 9.86523438 0.08984375 C18.04308521 0.17976514 18.04308521 0.17976514 21.46484375 2.4609375 C21.83957386 4.57273769 21.83957386 4.57273769 21.83906555 7.23692322 C21.84958702 8.74909172 21.84958702 8.74909172 21.86032104 10.29180908 C21.85267731 11.40199402 21.84503357 12.51217896 21.8371582 13.65600586 C21.84080887 14.8219075 21.84445953 15.98780914 21.84822083 17.18904114 C21.85635547 21.05976737 21.8426908 24.93007876 21.828125 28.80078125 C21.82760671 31.48117158 21.82807069 34.16154596 21.82963562 36.8419342 C21.8305192 42.46685783 21.81942603 48.09166108 21.80102539 53.71655273 C21.779867 60.22174685 21.7763453 66.72676444 21.78258735 73.23198599 C21.78828092 79.48546172 21.78263478 85.73887523 21.7714138 91.992342 C21.76755598 94.65534782 21.76641598 97.31835897 21.76799965 99.98136711 C21.76836928 103.69984018 21.75577788 107.41804214 21.73950195 111.13647461 C21.74197937 112.24463531 21.74445679 113.35279602 21.74700928 114.49453735 C21.73638206 116.01093559 21.73638206 116.01093559 21.72554016 117.55796814 C21.72348729 118.43752639 21.72143442 119.31708464 21.71931934 120.22329617 C21.46484375 122.4609375 21.46484375 122.4609375 19.46484375 125.4609375 C16.79101562 125.83325195 16.79101562 125.83325195 13.43359375 125.82421875 C12.23089844 125.82357422 11.02820313 125.82292969 9.7890625 125.82226562 C7.89607422 125.7980957 7.89607422 125.7980957 5.96484375 125.7734375 C4.70285156 125.77666016 3.44085937 125.77988281 2.140625 125.78320312 C-7.26835622 125.72773753 -7.26835622 125.72773753 -9.53515625 123.4609375 C-9.79242516 121.36754799 -9.79242516 121.36754799 -9.80258179 118.72964478 C-9.81111176 117.73139175 -9.81964172 116.73313873 -9.82843018 115.70463562 C-9.8275238 114.60537247 -9.82661743 113.50610931 -9.82568359 112.37353516 C-9.83240082 111.21899338 -9.83911804 110.0644516 -9.84603882 108.87492371 C-9.86510508 105.04157255 -9.86894741 101.20839568 -9.87109375 97.375 C-9.87589372 95.39017297 -9.88069679 93.4053459 -9.88601458 91.42052019 C-9.90231042 85.17616717 -9.9071825 78.93187183 -9.90576172 72.6875 C-9.90456041 66.24471962 -9.92565702 59.80227431 -9.95724905 53.35957873 C-9.98339802 47.82999393 -9.99412958 42.30051864 -9.9928509 36.77087247 C-9.99234078 33.46745828 -9.99988463 30.16440908 -10.019207 26.86104202 C-10.03874184 23.17611943 -10.03307727 19.49206465 -10.02099609 15.80712891 C-10.03223511 14.71191422 -10.04347412 13.61669952 -10.05505371 12.48829651 C-10.04666473 11.48440384 -10.03827576 10.48051117 -10.02963257 9.44619751 C-10.0307221 8.5749354 -10.03181164 7.70367329 -10.03293419 6.80600929 C-8.86758354 1.31594891 -5.1424543 -0.04377287 0 0 Z " fill="#F8F7F4" transform="translate(509.53515625,616.5390625)"/>
<path d="M0 0 C7.32705669 5.45950714 9.72525949 16.08796477 11.89941406 24.5378418 C12.1856665 25.60824707 12.47191895 26.67865234 12.7668457 27.78149414 C13.35900026 30.00366377 13.9449993 32.22748262 14.52490234 34.45288086 C15.38565014 37.7353529 16.27694533 41.00807435 17.17675781 44.2800293 C17.73102804 46.32406041 18.28444885 48.36832209 18.83691406 50.4128418 C19.09601563 51.35353516 19.35511719 52.29422852 19.62207031 53.26342773 C20.92718103 58.19882583 21.88684491 62.63688337 21.39941406 67.7878418 C18.16310287 72.88748367 15.14640045 75.01150055 9.39941406 76.7878418 C6.08126553 76.36576811 4.33492928 75.14539742 1.89941406 72.9128418 C1.20460938 72.2837793 0.50980469 71.6547168 -0.20605469 71.0065918 C-0.99625 70.2744043 -1.78644531 69.5422168 -2.60058594 68.7878418 C-4.53679775 66.99475303 -6.47364307 65.2024285 -8.41308594 63.4128418 C-9.18495239 62.7003125 -9.18495239 62.7003125 -9.97241211 61.97338867 C-14.06685906 58.21924115 -18.31702181 54.69836984 -22.64355469 51.21362305 C-26.06379008 48.40785531 -29.39521652 45.51159489 -32.72558594 42.6003418 C-39.64811154 36.55791979 -46.71228461 30.70034678 -53.82324219 24.8815918 C-54.4602002 24.35823242 -55.0971582 23.83487305 -55.75341797 23.2956543 C-56.97078617 22.30193688 -58.19561871 21.31728422 -59.42822266 20.3425293 C-60.85445378 19.20054265 -62.23311805 17.99957621 -63.60058594 16.7878418 C-63.60058594 16.1278418 -63.60058594 15.4678418 -63.60058594 14.7878418 C-53.74700158 10.99976233 -43.68155372 7.90873109 -33.60058594 4.7878418 C-32.6413623 4.48845703 -31.68213867 4.18907227 -30.69384766 3.88061523 C-27.91745655 3.02070058 -25.13549355 2.18221041 -22.35058594 1.3503418 C-21.51889893 1.09148193 -20.68721191 0.83262207 -19.83032227 0.56591797 C-13.37596116 -1.32213648 -6.32101293 -2.94628513 0 0 Z " fill="#F8F8F6" transform="translate(681.6005859375,116.212158203125)"/>
<path d="M0 0 C6.87936305 5.3303674 10.89657383 13.35309958 12.83203125 21.68359375 C13.44003375 30.11515789 13.69797967 38.95169692 9.83203125 46.68359375 C7.83203125 46.68359375 7.83203125 46.68359375 6.2109375 45.07421875 C5.61152344 44.3678125 5.01210938 43.66140625 4.39453125 42.93359375 C3.79769531 42.2375 3.20085937 41.54140625 2.5859375 40.82421875 C0.94122027 38.81685786 -0.62922983 36.77289063 -2.16796875 34.68359375 C-8.22831982 35.06115556 -12.17122154 37.93908569 -17.04296875 41.24609375 C-17.82671875 41.76623047 -18.61046875 42.28636719 -19.41796875 42.82226562 C-21.34094442 44.10034092 -23.25710744 45.38750638 -25.16796875 46.68359375 C-24.80178397 51.76323386 -22.0228637 54.41956752 -18.60546875 57.87109375 C-13.16796875 63.44335211 -13.16796875 63.44335211 -13.16796875 65.68359375 C-21.2382463 68.07698489 -29.91004485 67.76151163 -37.54296875 64.24609375 C-46.24270669 59.3046426 -52.09159061 52.20819952 -55.16796875 42.68359375 C-57.87881806 31.54513809 -56.70126444 20.72073477 -51.16796875 10.68359375 C-45.42861548 2.69650897 -38.23548905 -4.06516681 -28.34765625 -6.02734375 C-17.86492077 -7.41752731 -9.12596407 -5.54135115 0 0 Z " fill="#2C2C2C" transform="translate(306.16796875,650.31640625)"/>
<path d="M0 0 C1.80027168 0.00544536 3.60055323 0.00822368 5.40083313 0.00845337 C9.16623655 0.01617033 12.93046937 0.04708667 16.69555664 0.09619141 C21.52462038 0.15858873 26.35256606 0.177036 31.18199444 0.17998314 C34.89578713 0.18467964 38.6093415 0.20545496 42.3230381 0.23186111 C44.10404332 0.24392907 45.88507464 0.25262772 47.6661129 0.2579155 C50.15114649 0.26910966 52.63510973 0.30022784 55.11987305 0.33740234 C55.85707077 0.33761383 56.59426849 0.33782532 57.35380554 0.33804321 C62.35264949 0.44318967 62.35264949 0.44318967 64.78083801 2.31729126 C65.11741928 2.80297577 65.45400055 3.28866028 65.80078125 3.7890625 C64.45148661 7.62569322 62.723271 10.44078819 60.17578125 13.6015625 C59.22832031 14.78685547 59.22832031 14.78685547 58.26171875 15.99609375 C57.77960938 16.58777344 57.2975 17.17945313 56.80078125 17.7890625 C55.81078125 16.7990625 55.81078125 16.7990625 54.80078125 15.7890625 C55.36667969 15.10199219 55.93257812 14.41492188 56.515625 13.70703125 C57.61583984 12.35544922 57.61583984 12.35544922 58.73828125 10.9765625 C59.83462891 9.63658203 59.83462891 9.63658203 60.953125 8.26953125 C62.95260816 5.85543331 62.95260816 5.85543331 63.80078125 2.7890625 C53.17815132 2.80392616 42.55599381 2.84546903 31.93361282 2.92115307 C27.00125284 2.95545589 22.06920367 2.98053815 17.13671875 2.98461914 C12.37724399 2.98889505 7.61847076 3.01729868 2.85921478 3.06249428 C1.04277379 3.07549199 -0.77375106 3.07976893 -2.59023285 3.07521629 C-5.13351856 3.07032625 -7.67474122 3.09632887 -10.21777344 3.12963867 C-10.97015289 3.12101303 -11.72253235 3.11238739 -12.49771118 3.10350037 C-16.42926901 3.18992325 -17.88882965 3.47341003 -20.69805908 6.33027649 C-21.19344177 7.14167587 -21.68882446 7.95307526 -22.19921875 8.7890625 C-22.85921875 8.4590625 -23.51921875 8.1290625 -24.19921875 7.7890625 C-18.96393499 -1.91017734 -9.72501659 -0.15652694 0 0 Z " fill="#111110" transform="translate(566.19921875,302.2109375)"/>
<path d="M0 0 C3.76858764 1.30653125 6.22821896 2.8364418 9.125 5.5625 C12.40202213 8.5695862 15.72872062 11.45343169 19.1875 14.25 C25.28954242 19.20472246 31.24390495 24.32050686 37.19726562 29.45166016 C38.97485913 30.97840691 40.75952015 32.49641708 42.546875 34.01171875 C49.08147027 39.56083081 55.4929519 45.2058937 61.73852539 51.08007812 C66.776176 56.31803376 66.776176 56.31803376 73.375 58 C77.51739438 56.85727052 80.5176421 55.53716174 83 52 C84.05449599 48.70028527 84.61284567 45.43766348 85 42 C85.66 42.66 86.32 43.32 87 44 C86.73137862 48.74564436 86.01409647 52.28261436 83 56 C78.94755427 58.94000965 75.2934679 60.98278234 70.08984375 60.703125 C66.29915994 59.42775475 64.04498482 56.45487632 61.40625 53.55859375 C58.98045273 50.97921516 56.4578173 48.82612855 53.6875 46.625 C49.64264314 43.38685796 45.78792586 40.02883882 42 36.5 C37.44921841 32.27015829 32.75700255 28.27917738 27.91796875 24.3828125 C23.93086524 21.12694484 20.04509018 17.75835889 16.15014648 14.39331055 C11.79357977 10.64365281 7.34082065 7.04004729 2.79296875 3.5234375 C1 2 1 2 0 0 Z " fill="#151414" transform="translate(618,134)"/>
<path d="M0 0 C4.36290315 2.79539304 8.33210701 5.85528544 12.25 9.25 C16.94904156 13.27449957 21.70462955 17.20351428 26.55078125 21.05078125 C31.07468951 24.65114843 35.53927643 28.32185951 40 32 C40.98613281 32.79792969 41.97226562 33.59585938 42.98828125 34.41796875 C52.04316931 41.82936187 60.23445916 50.0344129 68.41870117 58.38696289 C69.60579654 59.59788447 70.80093234 60.80093234 72 62 C68.46675175 61.42149623 66.85482306 60.20353355 64.390625 57.6484375 C63.71773437 56.96136719 63.04484375 56.27429688 62.3515625 55.56640625 C61.65804687 54.84324219 60.96453125 54.12007812 60.25 53.375 C53.62305925 46.53388055 46.81878617 40.12565668 39.3125 34.25 C35.30708031 31.07519729 31.3902019 27.81360218 27.5 24.5 C21.18447194 19.12572852 14.76154822 13.9023645 8.1953125 8.8359375 C7.28523438 8.12695312 6.37515625 7.41796875 5.4375 6.6875 C4.61121094 6.05199219 3.78492188 5.41648438 2.93359375 4.76171875 C1 3 1 3 0 0 Z " fill="#171716" transform="translate(469,176)"/>
<path d="M0 0 C0.40601944 0.42378937 0.81203888 0.84757874 1.23036194 1.28421021 C5.92025471 5.7869396 9.14388919 6.88232998 15.55859375 6.8046875 C16.74232323 6.82524704 16.74232323 6.82524704 17.94996643 6.84622192 C20.44640153 6.88332213 22.94082988 6.87982122 25.4375 6.875 C27.14000478 6.89314105 28.84248335 6.91394816 30.54492188 6.9375 C34.69694782 6.98916259 38.84767043 7.00444405 43 7 C42.67 7.66 42.34 8.32 42 9 C37.10710835 9.1238948 32.21513573 9.21447509 27.32104492 9.2746582 C25.65747161 9.29975347 23.99400804 9.33383796 22.33081055 9.37719727 C19.93510847 9.4380746 17.54086749 9.46625769 15.14453125 9.48828125 C14.4047554 9.51408768 13.66497955 9.5398941 12.90278625 9.56648254 C8.99045026 9.56859223 7.21953042 9.17359127 4.1159668 6.71948242 C2.37004584 4.47559024 1.20321087 2.53749299 0 0 Z " fill="#202021" transform="translate(750,736)"/>
<path d="M0 0 C0.99 0.33 1.98 0.66 3 1 C2.49210937 1.36609375 1.98421875 1.7321875 1.4609375 2.109375 C-5.8335255 7.84659309 -10.67188761 15.71704774 -12 25 C-12.21881019 27.6068127 -12.41012853 30.20220189 -12.5625 32.8125 C-12.60568359 33.50537109 -12.64886719 34.19824219 -12.69335938 34.91210938 C-12.79861453 36.60788686 -12.89972863 38.30392052 -13 40 C-15.75802704 37.24197296 -15.36451791 35.54696485 -15.4375 31.6875 C-15.19753024 18.66247445 -10.21975176 9.91496658 -1 1 C-0.67 0.67 -0.34 0.34 0 0 Z " fill="#1E1E1E" transform="translate(265,650)"/>
<path d="M0 0 C-4.76572295 4.76572295 -13.1078635 4.25618654 -19.46484375 4.2734375 C-20.42519531 4.26570312 -21.38554688 4.25796875 -22.375 4.25 C-23.35855469 4.25773438 -24.34210937 4.26546875 -25.35546875 4.2734375 C-26.29777344 4.27085937 -27.24007812 4.26828125 -28.2109375 4.265625 C-29.48396729 4.26224121 -29.48396729 4.26224121 -30.78271484 4.25878906 C-33 4 -33 4 -36 2 C-35.23333008 1.97494385 -34.46666016 1.9498877 -33.67675781 1.92407227 C-30.20100717 1.80798577 -26.72551908 1.68531634 -23.25 1.5625 C-22.0434375 1.52318359 -20.836875 1.48386719 -19.59375 1.44335938 C-17.85351562 1.38051758 -17.85351562 1.38051758 -16.078125 1.31640625 C-15.00981445 1.27974854 -13.94150391 1.24309082 -12.84082031 1.20532227 C-8.41569516 0.88549326 -4.50689917 -0.10242953 0 0 Z " fill="#1D1D1D" transform="translate(552,896)"/>
<path d="M0 0 C10.80230589 4.82603018 20.67197119 15.67197119 29 24 C25.58395377 24 25.25025705 23.6683543 22.8125 21.5078125 C21.89513062 20.7039209 21.89513062 20.7039209 20.95922852 19.88378906 C20.31268311 19.30338867 19.6661377 18.72298828 19 18.125 C18.00601196 17.24666504 18.00601196 17.24666504 16.99194336 16.35058594 C14.9875611 14.57481382 12.99309055 12.78842722 11 11 C9.8555583 9.98167018 8.71103355 8.96343369 7.56640625 7.9453125 C2.17870308 3.11981921 2.17870308 3.11981921 0 1 C0 0.67 0 0.34 0 0 Z " fill="#151515" transform="translate(339,231)"/>
<path d="M0 0 C1.91961295 2.87941942 3.24636665 5.67359312 4.6875 8.8125 C8.26120162 15.97720931 11.95484907 19.98487557 19.4375 22.875 C20.613125 23.24625 21.78875 23.6175 23 24 C23 24.66 23 25.32 23 26 C14.40172566 24.61813448 9.27914568 20.2824621 4.125 13.375 C1.19757703 8.72556351 -0.31594736 5.52907872 0 0 Z " fill="#161616" transform="translate(501,844)"/>
<path d="M0 0 C3.48701672 1.49232286 5.71827786 3.48558151 8.37109375 6.17578125 C9.60375977 7.41811523 9.60375977 7.41811523 10.86132812 8.68554688 C11.71146484 9.55244141 12.56160156 10.41933594 13.4375 11.3125 C14.28376953 12.16779297 15.13003906 13.02308594 16.00195312 13.90429688 C17.62684729 15.54700507 19.24982992 17.19160696 20.87060547 18.83837891 C23.23469902 21.23825099 25.61307115 23.62287373 28 26 C24.27774043 26 23.39549795 24.74575863 20.84846497 22.21400452 C20.31710434 21.67029709 19.78574371 21.12658966 19.23828125 20.56640625 C18.41229683 19.73761208 18.41229683 19.73761208 17.56962585 18.89207458 C16.40707399 17.72279842 15.24812661 16.54992913 14.0925293 15.3737793 C12.31615854 13.56622277 10.52930811 11.76958521 8.74023438 9.97460938 C7.61395648 8.83916311 6.48828427 7.70311567 5.36328125 6.56640625 C4.55713127 5.75388145 4.55713127 5.75388145 3.73469543 4.92494202 C0 1.11714422 0 1.11714422 0 0 Z " fill="#141414" transform="translate(417,211)"/>
<path d="M0 0 C4.3609051 1.40608395 6.81964503 3.46703708 10.01171875 6.71875 C10.93404297 7.65074219 11.85636719 8.58273438 12.80664062 9.54296875 C13.76710541 10.52847207 14.72738997 11.51415106 15.6875 12.5 C16.65880467 13.48636742 17.63080346 14.47205182 18.60351562 15.45703125 C21.07532442 17.96526671 23.53831154 20.48184415 26 23 C26.66 23.66 27.32 24.32 28 25 C24.46675175 24.42149623 22.85482306 23.20353355 20.390625 20.6484375 C19.38128906 19.61783203 19.38128906 19.61783203 18.3515625 18.56640625 C17.65804687 17.84324219 16.96453125 17.12007812 16.25 16.375 C11.48986989 11.46102538 6.69671556 6.74390594 1.45996094 2.33447266 C0.97817383 1.89409668 0.49638672 1.4537207 0 1 C0 0.67 0 0.34 0 0 Z " fill="#111110" transform="translate(513,213)"/>
<path d="M0 0 C2.64752004 2.57784846 4.94432065 4.91648098 7 8 C10.50453748 8.6874049 11.98129652 8.01051338 15.11328125 6.25 C16.16902344 5.5075 17.22476562 4.765 18.3125 4 C19.38113281 3.2575 20.44976562 2.515 21.55078125 1.75 C22.35902344 1.1725 23.16726563 0.595 24 0 C24.66 0.33 25.32 0.66 26 1 C24.06055116 2.47673769 22.11465469 3.94296721 20.15625 5.39453125 C18.37799385 6.71855892 16.62313721 8.07395297 14.875 9.4375 C12 11 12 11 9 11.25 C4.58641585 9.4110066 2.35549469 6.08452803 0 2 C0 1.34 0 0.68 0 0 Z " fill="#171717" transform="translate(319,742)"/>
<path d="M0 0 C2.72043759 2.72043759 3.1799434 5.74429279 4.0625 9.375 C4.2387793 10.0865625 4.41505859 10.798125 4.59667969 11.53125 C6.04732261 17.6519211 6.76178404 23.71109859 7 30 C2.08255491 21.20152201 0.41356348 9.94620164 0 0 Z " fill="#1F1F1F" transform="translate(276,281)"/>
<path d="M0 0 C0.66 0.33 1.32 0.66 2 1 C-4.14540239 8.08923552 -12.02884788 13.14026381 -21 16 C-23.3125 15.625 -23.3125 15.625 -25 15 C-24.16597656 14.63648438 -23.33195312 14.27296875 -22.47265625 13.8984375 C-14.30795408 10.25097605 -6.24013835 6.56958665 0 0 Z " fill="#191918" transform="translate(467,729)"/>
<path d="M0 0 C0.66 0 1.32 0 2 0 C3.64507642 2.11423898 5.17754675 4.22956277 6.6875 6.4375 C10.23766709 11.55142346 13.89015551 16.47528517 17.91796875 21.23046875 C18.27503906 21.81441406 18.63210938 22.39835938 19 23 C18.67 23.99 18.34 24.98 18 26 C15.36556196 22.61139477 12.74415652 19.21292629 10.125 15.8125 C9.37863281 14.85279297 8.63226562 13.89308594 7.86328125 12.90429688 C6.79013672 11.50727539 6.79013672 11.50727539 5.6953125 10.08203125 C5.03547363 9.22843018 4.37563477 8.3748291 3.69580078 7.49536133 C2.03763769 5.05538365 0.97748787 2.77389337 0 0 Z " fill="#181817" transform="translate(748,677)"/>
<path d="M0 0 C2.94741572 1.33940394 5.13407093 2.83989608 7.49609375 5.046875 C8.13740234 5.645 8.77871094 6.243125 9.43945312 6.859375 C10.09880859 7.48328125 10.75816406 8.1071875 11.4375 8.75 C12.09298828 9.3584375 12.74847656 9.966875 13.42382812 10.59375 C17.25868701 14.1939786 20.72393933 17.88440933 24 22 C20.993182 20.66000502 19.00237391 19.20154709 16.75 16.8125 C12.14260643 12.06668688 7.23866265 7.72563579 2 3.6875 C1.34 3.130625 0.68 2.57375 0 2 C0 1.34 0 0.68 0 0 Z " fill="#111111" transform="translate(369,257)"/>
<path d="M0 0 C3.56349574 2.42128219 6.80221678 5.11749118 10 8 C9.34 8.66 8.68 9.32 8 10 C7.56429688 9.50628906 7.12859375 9.01257813 6.6796875 8.50390625 C4.00187434 5.62322846 1.87371297 3.34948519 -1.8125 1.875 C-5.72387438 2.02838723 -8.96545076 3.08097286 -12.6328125 4.40625 C-15.19773245 5.04959626 -16.53526408 4.86322548 -19 4 C-5.06493506 -1.12554113 -5.06493506 -1.12554113 0 0 Z " fill="#181818" transform="translate(402,196)"/>
<path d="M0 0 C0.66 0.33 1.32 0.66 2 1 C-3.33333333 7.66666667 -8.66666667 14.33333333 -14 21 C-14.66 20.67 -15.32 20.34 -16 20 C-5.62642369 6.3667426 -5.62642369 6.3667426 0 0 Z " fill="#191919" transform="translate(314,326)"/>
<path d="M0 0 C0.70962891 0.54527344 0.70962891 0.54527344 1.43359375 1.1015625 C8.65445012 6.59110243 16.06065383 11.60802127 24 16 C21 17 21 17 18.3984375 15.84765625 C11.70653249 11.8964927 5.27106327 7.79018314 0 2 C0 1.34 0 0.68 0 0 Z " fill="#121211" transform="translate(564,726)"/>
<path d="M0 0 C3.58317014 1.2082783 5.0698578 3.10335846 7.5 5.96875 C8.68529297 7.34740234 8.68529297 7.34740234 9.89453125 8.75390625 C10.78205078 9.81931641 10.78205078 9.81931641 11.6875 10.90625 C12.6775 9.91625 13.6675 8.92625 14.6875 7.90625 C14.3575 10.21625 14.0275 12.52625 13.6875 14.90625 C11.6875 14.90625 11.6875 14.90625 10.06640625 13.296875 C9.46699219 12.59046875 8.86757813 11.8840625 8.25 11.15625 C7.65316406 10.46015625 7.05632812 9.7640625 6.44140625 9.046875 C4.6875 6.90625 4.6875 6.90625 3.1953125 4.65625 C2.69773437 4.07875 2.20015625 3.50125 1.6875 2.90625 C-1.93813814 2.57244186 -1.93813814 2.57244186 -5.3125 2.90625 C-3.57971679 0.62627209 -2.93563098 -0.11901207 0 0 Z " fill="#111111" transform="translate(302.3125,682.09375)"/>
<path d="M0 0 C8.63874567 3.70506203 14.56997085 13.60432196 18 22 C17.67 22.66 17.34 23.32 17 24 C16.443125 23.09378906 15.88625 22.18757812 15.3125 21.25390625 C11.12528488 14.53793437 6.90474878 8.34399433 1.43359375 2.57421875 C0 1 0 1 0 0 Z " fill="#131312" transform="translate(329,630)"/>
<path d="M0 0 C0.66 0 1.32 0 2 0 C3.51220703 1.92773438 3.51220703 1.92773438 5.2578125 4.59375 C5.88300781 5.54121094 6.50820313 6.48867188 7.15234375 7.46484375 C7.80332031 8.46644531 8.45429687 9.46804688 9.125 10.5 C9.78371094 11.50160156 10.44242188 12.50320313 11.12109375 13.53515625 C12.75362714 16.01944619 14.37956884 18.50780592 16 21 C15.34 21.66 14.68 22.32 14 23 C11.84872273 19.73271697 9.70492781 16.46059128 7.5625 13.1875 C6.95083984 12.25873047 6.33917969 11.32996094 5.70898438 10.37304688 C5.12568359 9.48037109 4.54238281 8.58769531 3.94140625 7.66796875 C3.40201416 6.84578857 2.86262207 6.0236084 2.30688477 5.17651367 C1 3 1 3 0 0 Z " fill="#181818" transform="translate(663,830)"/>
<path d="M0 0 C5.86020192 2.30222218 8.57496853 7.50971694 11.17578125 12.9375 C12.38375138 15.96028781 12.870313 18.75782489 13 22 C12.34 22.66 11.68 23.32 11 24 C10.91363281 23.3709375 10.82726562 22.741875 10.73828125 22.09375 C9.68421822 15.67266876 7.76434435 11.25884525 4 6 C3.22607601 4.83538126 2.45493516 3.66890479 1.6875 2.5 C1.130625 1.675 0.57375 0.85 0 0 Z " fill="#151515" transform="translate(791,779)"/>
<path d="M0 0 C0 0.66 0 1.32 0 2 C-1.24716797 2.16435547 -1.24716797 2.16435547 -2.51953125 2.33203125 C-3.60621094 2.49058594 -4.69289063 2.64914062 -5.8125 2.8125 C-6.89144531 2.96332031 -7.97039063 3.11414063 -9.08203125 3.26953125 C-12.10240575 4.02563571 -13.2193249 4.49742959 -15 7 C-15.7269226 10.10839021 -15.7269226 10.10839021 -16 13 C-16.33 13 -16.66 13 -17 13 C-17.81707432 6.11323071 -17.81707432 6.11323071 -15.79296875 3.35546875 C-10.89664904 -0.62350769 -6.0785952 -0.55037582 0 0 Z " fill="#1C1B1B" transform="translate(759,796)"/>
<path d="M0 0 C3.37492629 -0.05845196 6.74972087 -0.09374742 10.125 -0.125 C11.07632813 -0.14175781 12.02765625 -0.15851562 13.0078125 -0.17578125 C18.08583255 -0.21104528 22.24487525 -0.03333617 27 2 C27 2.33 27 2.66 27 3 C25.7625 3.020625 24.525 3.04125 23.25 3.0625 C22.55390625 3.07410156 21.8578125 3.08570313 21.140625 3.09765625 C19 3 19 3 17.21875 2.53125 C13.93419524 1.74480731 10.61065523 1.63126179 7.25 1.4375 C6.55261719 1.39431641 5.85523438 1.35113281 5.13671875 1.30664062 C3.42468078 1.20110404 1.71236439 1.1001009 0 1 C0 0.67 0 0.34 0 0 Z " fill="#191A18" transform="translate(522,767)"/>
<path d="M0 0 C3.81275005 3.60958397 6.8622288 7.35290853 9.8125 11.6875 C10.21919922 12.26822266 10.62589844 12.84894531 11.04492188 13.44726562 C14 17.74330357 14 17.74330357 14 20 C13.34 20 12.68 20 12 20 C10.63672682 18.17640081 9.35880911 16.28856809 8.125 14.375 C7.10792969 12.80878906 7.10792969 12.80878906 6.0703125 11.2109375 C5.38710938 10.15132812 4.70390625 9.09171875 4 8 C3.25492188 6.91976562 2.50984375 5.83953125 1.7421875 4.7265625 C0 2 0 2 0 0 Z " fill="#161616" transform="translate(780,720)"/>
<path d="M0 0 C-6.44985438 3.52888584 -13.74446344 4.31545811 -21 4 C-21 3.34 -21 2.68 -21 2 C-13.90294338 0.65504172 -7.2274605 -0.24091535 0 0 Z " fill="#1F1E1E" transform="translate(796,805)"/>
<path d="M0 0 C0.99 0.495 0.99 0.495 2 1 C2.8515625 3.73046875 2.8515625 3.73046875 3.625 7.1875 C3.88539063 8.31542969 4.14578125 9.44335938 4.4140625 10.60546875 C4.96879207 13.81920204 5.1085757 16.74766433 5 20 C2.38158129 17.38158129 2.18149063 15.28412235 1.375 11.6875 C1.11460937 10.55699219 0.85421875 9.42648437 0.5859375 8.26171875 C0.0732561 5.40779229 -0.11914675 2.88660093 0 0 Z " fill="#1E1D1C" transform="translate(271,260)"/>
<path d="M0 0 C3.06715595 1.35945995 5.07741042 2.88007535 7.375 5.3125 C10.42301972 8.45926766 13.58851686 11.2541721 17 14 C16.34 14.66 15.68 15.32 15 16 C12.49599357 13.5248518 9.99748094 11.04423106 7.5 8.5625 C6.78457031 7.85544922 6.06914063 7.14839844 5.33203125 6.41992188 C4.65527344 5.74638672 3.97851562 5.07285156 3.28125 4.37890625 C2.65283203 3.7557251 2.02441406 3.13254395 1.37695312 2.49047852 C0 1 0 1 0 0 Z " fill="#171716" transform="translate(582,184)"/>
<path d="M0 0 C4.7871428 0.57665391 8.25128824 2.64082996 12.3125 5.0625 C12.95767578 5.43955078 13.60285156 5.81660156 14.26757812 6.20507812 C15.84878152 7.13037493 17.4249146 8.06432681 19 9 C18.34 9.66 17.68 10.32 17 11 C15.10119204 9.92188894 13.20608022 8.83726681 11.3125 7.75 C10.25675781 7.14671875 9.20101563 6.5434375 8.11328125 5.921875 C5.20613677 4.1272513 2.61476869 2.19271883 0 0 Z " fill="#161615" transform="translate(484,422)"/>
<path d="M0 0 C0.33 0.99 0.66 1.98 1 3 C0.01 3.33 -0.98 3.66 -2 4 C-2.309375 4.61875 -2.61875 5.2375 -2.9375 5.875 C-4.20298687 8.40597375 -5.67272837 9.44848558 -8 11 C-8.66 10.67 -9.32 10.34 -10 10 C-8.90453883 8.51437458 -7.79831177 7.03668291 -6.6875 5.5625 C-6.07261719 4.73878906 -5.45773437 3.91507812 -4.82421875 3.06640625 C-3 1 -3 1 0 0 Z " fill="#242423" transform="translate(325,314)"/>
<path d="M0 0 C0.66 1.32 1.32 2.64 2 4 C-2.455 9.94 -2.455 9.94 -7 16 C-7.66 15.34 -8.32 14.68 -9 14 C-8.43410156 13.32453125 -7.86820313 12.6490625 -7.28515625 11.953125 C-6.55167969 11.06109375 -5.81820312 10.1690625 -5.0625 9.25 C-4.33160156 8.36828125 -3.60070312 7.4865625 -2.84765625 6.578125 C-1.16962815 4.23669045 -0.41264834 2.80338873 0 0 Z " fill="#1F1E1E" transform="translate(630,304)"/>
<path d="M0 0 C0 4.2650016 -2.44473414 6.50032379 -5 9.6875 C-5.71542969 10.59725586 -5.71542969 10.59725586 -6.4453125 11.52539062 C-7.62376394 13.02202396 -8.81105188 14.51169173 -10 16 C-10.66 15.67 -11.32 15.34 -12 15 C-10.37676928 12.87362766 -8.7515047 10.74886564 -7.125 8.625 C-6.66480469 8.02171875 -6.20460938 7.4184375 -5.73046875 6.796875 C-3.90627059 4.41748609 -2.12258788 2.12258788 0 0 Z " fill="#181717" transform="translate(476,308)"/>
<path d="M0 0 C0.33 0.66 0.66 1.32 1 2 C-3.95 8.93 -3.95 8.93 -9 16 C-9.66 15.67 -10.32 15.34 -11 15 C-9.3553057 12.68668225 -7.70930345 10.37431549 -6.0625 8.0625 C-5.59392578 7.40314453 -5.12535156 6.74378906 -4.64257812 6.06445312 C-1.11328125 1.11328125 -1.11328125 1.11328125 0 0 Z " fill="#161615" transform="translate(684,796)"/>
<path d="M0 0 C0 4.13997696 -2.16832917 6.45607031 -4.5 9.6875 C-4.92925781 10.29400391 -5.35851562 10.90050781 -5.80078125 11.52539062 C-6.86093138 13.02138026 -7.92965571 14.511287 -9 16 C-9.33 15.01 -9.66 14.02 -10 13 C-8.61328962 10.82256966 -7.22663098 8.88180548 -5.625 6.875 C-5.19960938 6.32457031 -4.77421875 5.77414062 -4.3359375 5.20703125 C-1.31104052 1.31104052 -1.31104052 1.31104052 0 0 Z " fill="#181717" transform="translate(773,637)"/>
<path d="M0 0 C0.66 0 1.32 0 2 0 C2.32613281 0.66386719 2.65226563 1.32773437 2.98828125 2.01171875 C5.18009471 6.44060436 7.35262752 10.81993819 10 15 C6.17090709 13.52663164 4.78616322 11.56408372 2.75 8.0625 C2.22921875 7.18722656 1.7084375 6.31195312 1.171875 5.41015625 C0 3 0 3 0 0 Z " fill="#1D1D1D" transform="translate(553,709)"/>
<path d="M0 0 C0.66 0.33 1.32 0.66 2 1 C-1.42066436 6.05663427 -5.91002391 8.83507897 -11 12 C-11.66 11.67 -12.32 11.34 -13 11 C-12.31292969 10.45730469 -11.62585938 9.91460938 -10.91796875 9.35546875 C-10.01691406 8.64003906 -9.11585938 7.92460938 -8.1875 7.1875 C-7.29417969 6.47980469 -6.40085937 5.77210938 -5.48046875 5.04296875 C-3.52923089 3.43588623 -1.73725024 1.82959577 0 0 Z " fill="#161616" transform="translate(713,569)"/>
<path d="M0 0 C4.66666667 4 9.33333333 8 14 12 C13.01 12.33 12.02 12.66 11 13 C6.63256412 10.30455233 2.90393747 6.18166996 0 2 C0 1.34 0 0.68 0 0 Z " fill="#171717" transform="translate(479,875)"/>
<path d="M0 0 C5 3.33333333 10 6.66666667 15 10 C14.01 10.33 13.02 10.66 12 11 C9.84375 9.890625 9.84375 9.890625 7.5 8.25 C6.7265625 7.71890625 5.953125 7.1878125 5.15625 6.640625 C3.24827658 5.1889061 1.55932549 3.81921307 0 2 C0 1.34 0 0.68 0 0 Z " fill="#141413" transform="translate(717,830)"/>
<path d="M0 0 C0.66 0.33 1.32 0.66 2 1 C-1.3 4.96 -4.6 8.92 -8 13 C-8.66 12.67 -9.32 12.34 -10 12 C-8.70984254 10.37380152 -7.41782303 8.74908017 -6.125 7.125 C-5.04605469 5.76761719 -5.04605469 5.76761719 -3.9453125 4.3828125 C-2 2 -2 2 0 0 Z " fill="#171717" transform="translate(606,338)"/>
<path d="M0 0 C0.66 0.33 1.32 0.66 2 1 C-5.68265683 9.08118081 -5.68265683 9.08118081 -10 11 C-10.99 10.67 -11.98 10.34 -13 10 C-12.22914063 9.44570313 -11.45828125 8.89140625 -10.6640625 8.3203125 C-9.66117188 7.59585938 -8.65828125 6.87140625 -7.625 6.125 C-6.62726562 5.40570312 -5.62953125 4.68640625 -4.6015625 3.9453125 C-2.00530106 2.1005342 -2.00530106 2.1005342 0 0 Z " fill="#151514" transform="translate(573,880)"/>
<path d="M0 0 C0.66 0 1.32 0 2 0 C0.44298069 4.67105792 -2.08447373 8.08705685 -5 12 C-5.99 11.67 -6.98 11.34 -8 11 C-7.50628906 10.37351562 -7.01257813 9.74703125 -6.50390625 9.1015625 C-5.54291016 7.87566406 -5.54291016 7.87566406 -4.5625 6.625 C-3.92441406 5.81289063 -3.28632812 5.00078125 -2.62890625 4.1640625 C-0.97776453 2.10601894 -0.97776453 2.10601894 0 0 Z " fill="#232323" transform="translate(581,868)"/>
<path d="M0 0 C6.50060481 -0.48754536 11.65467807 1.43645204 17 5 C10.95198929 4.45018084 5.69398894 3.09570426 0 1 C0 0.67 0 0.34 0 0 Z " fill="#131313" transform="translate(757,817)"/>
<path d="M0 0 C0 0.33 0 0.66 0 1 C-0.67546875 1.04898438 -1.3509375 1.09796875 -2.046875 1.1484375 C-2.93890625 1.22320313 -3.8309375 1.29796875 -4.75 1.375 C-5.63171875 1.44460938 -6.5134375 1.51421875 -7.421875 1.5859375 C-10.01320972 1.8700127 -10.01320972 1.8700127 -12.1875 3.09375 C-13.0846875 3.54234375 -13.0846875 3.54234375 -14 4 C-16.25 3.125 -16.25 3.125 -18 2 C-12.12116651 -0.61281488 -6.29268272 -0.18328202 0 0 Z " fill="#4B4B4A" transform="translate(535,798)"/>
<path d="M0 0 C3.9252025 3.70090521 6.94580156 7.54959656 10 12 C9.01 12 8.02 12 7 12 C5.4296875 10.390625 5.4296875 10.390625 3.875 8.25 C3.35679687 7.55390625 2.83859375 6.8578125 2.3046875 6.140625 C1.03294689 4.05405657 0.44085483 2.38706762 0 0 Z " fill="#1B1A1A" transform="translate(226,715)"/>
<path d="M0 0 C3.93846154 3.32307692 3.93846154 3.32307692 4.25 6.75 C4.1675 7.4925 4.085 8.235 4 9 C4.66 9.33 5.32 9.66 6 10 C3 10 3 10 1.3125 8.9375 C-0.65926927 6.02679298 -0.19356822 3.41970529 0 0 Z " fill="#373836" transform="translate(741,803)"/>
<path d="M0 0 C5.26170694 1.41167747 8.72171358 3.74850232 13 7 C12.34 7.66 11.68 8.32 11 9 C9.16384919 7.69144447 7.33114211 6.37805538 5.5 5.0625 C4.4790625 4.33160156 3.458125 3.60070312 2.40625 2.84765625 C1.6121875 2.23792969 0.818125 1.62820313 0 1 C0 0.67 0 0.34 0 0 Z " fill="#1E1E1D" transform="translate(557,773)"/>
<path d="M0 0 C9.59453303 6.15034169 9.59453303 6.15034169 13 10 C7.58889909 8.68021929 3.73558494 6.06714573 0 2 C0 1.34 0 0.68 0 0 Z " fill="#111211" transform="translate(382,732)"/>
<path d="M0 0 C0.66 0.33 1.32 0.66 2 1 C-0.97 4.63 -3.94 8.26 -7 12 C-7.33 11.34 -7.66 10.68 -8 10 C-5.36 6.7 -2.72 3.4 0 0 Z " fill="#161616" transform="translate(593,354)"/>
<path d="M0 0 C5.94 0.33 11.88 0.66 18 1 C18 1.33 18 1.66 18 2 C8.595 2.495 8.595 2.495 -1 3 C-0.67 2.01 -0.34 1.02 0 0 Z " fill="#595958" transform="translate(519,767)"/>
<path d="M0 0 C0.66 0.33 1.32 0.66 2 1 C0.75645114 2.29787866 -0.4951264 3.58806759 -1.75 4.875 C-2.44609375 5.59429688 -3.1421875 6.31359375 -3.859375 7.0546875 C-5.85122217 8.86479679 -7.5427658 9.94848086 -10 11 C-8.55218207 7.55571735 -6.72305391 5.63869038 -3.875 3.25 C-3.15054688 2.63640625 -2.42609375 2.0228125 -1.6796875 1.390625 C-0.84824219 0.70226562 -0.84824219 0.70226562 0 0 Z " fill="#0F0F0F" transform="translate(657,726)"/>
<path d="M0 0 C0.66 0.33 1.32 0.66 2 1 C-0.64 4.3 -3.28 7.6 -6 11 C-6.66 10.67 -7.32 10.34 -8 10 C-5.36 6.7 -2.72 3.4 0 0 Z " fill="#181818" transform="translate(619,321)"/>
<path d="M0 0 C0.66 0.33 1.32 0.66 2 1 C-0.64 4.3 -3.28 7.6 -6 11 C-6.66 10.67 -7.32 10.34 -8 10 C-5.36 6.7 -2.72 3.4 0 0 Z " fill="#141414" transform="translate(462,326)"/>
<path d="M0 0 C4.59306496 1.4859916 7.43569245 3.85014682 11 7 C10.34 7.66 9.68 8.32 9 9 C7.49704815 7.69088122 5.99770689 6.37761608 4.5 5.0625 C3.6646875 4.33160156 2.829375 3.60070312 1.96875 2.84765625 C1.3190625 2.23792969 0.669375 1.62820312 0 1 C0 0.67 0 0.34 0 0 Z " fill="#191918" transform="translate(327,221)"/>
<path d="M0 0 C0.48210938 0.42152344 0.96421875 0.84304688 1.4609375 1.27734375 C2.09257813 1.82519531 2.72421875 2.37304688 3.375 2.9375 C4.00148438 3.48277344 4.62796875 4.02804687 5.2734375 4.58984375 C6.95632334 6.06958624 6.95632334 6.06958624 9 7 C9 7.66 9 8.32 9 9 C4.5937814 7.65365543 2.56922298 5.80625626 0 2 C0 1.34 0 0.68 0 0 Z " fill="#181818" transform="translate(750,736)"/>
<path d="M0 0 C0.66 0 1.32 0 2 0 C0.33248852 3.94139078 -2.22710649 6.7892812 -5 10 C-5.33 9.34 -5.66 8.68 -6 8 C-5.04956626 6.66102417 -4.08940853 5.32894573 -3.125 4 C-2.59132813 3.2575 -2.05765625 2.515 -1.5078125 1.75 C-1.01023437 1.1725 -0.51265625 0.595 0 0 Z " fill="#1B1C1C" transform="translate(437,358)"/>
<path d="M0 0 C0.33 0.66 0.66 1.32 1 2 C-0.98 4.64 -2.96 7.28 -5 10 C-5.33 9.01 -5.66 8.02 -6 7 C-4.78515625 5.17578125 -4.78515625 5.17578125 -3.0625 3.3125 C-2.49660156 2.68988281 -1.93070312 2.06726563 -1.34765625 1.42578125 C-0.90292969 0.95527344 -0.45820313 0.48476563 0 0 Z " fill="#171717" transform="translate(446,347)"/>
<path d="M0 0 C0.66 0 1.32 0 2 0 C0.33333333 3.33333333 -1.33333333 6.66666667 -3 10 C-3.75 8.375 -3.75 8.375 -4 6 C-2.1875 2.75 -2.1875 2.75 0 0 Z " fill="#1B1B1A" transform="translate(507,807)"/>
<path d="M0 0 C3.78717347 1.48781815 5.77407001 3.61988409 8 7 C7.67 7.99 7.34 8.98 7 10 C5.83043409 8.52312468 4.66441854 7.04343707 3.5 5.5625 C2.8503125 4.73878906 2.200625 3.91507812 1.53125 3.06640625 C0 1 0 1 0 0 Z " fill="#111010" transform="translate(320,271)"/>
<path d="M0 0 C3.76488042 1.72154788 6.15063897 3.99234114 9 7 C6 7 6 7 4.39453125 5.46875 C3.87246094 4.8190625 3.35039062 4.169375 2.8125 3.5 C2.28269531 2.8503125 1.75289063 2.200625 1.20703125 1.53125 C0.80871094 1.0259375 0.41039062 0.520625 0 0 Z " fill="#1A1A1A" transform="translate(339,231)"/>
<path d="M0 0 C0.99 0.33 1.98 0.66 3 1 C1.71475739 1.86380259 0.42157581 2.71580369 -0.875 3.5625 C-1.59429688 4.03816406 -2.31359375 4.51382813 -3.0546875 5.00390625 C-3.69664062 5.33261719 -4.33859375 5.66132812 -5 6 C-5.66 5.67 -6.32 5.34 -7 5 C-2.25 1.125 -2.25 1.125 0 0 Z " fill="#161616" transform="translate(597,648)"/>
<path d="M0 0 C1.98 0 3.96 0 6 0 C6.33 0.66 6.66 1.32 7 2 C4.69 2.66 2.38 3.32 0 4 C0 2.68 0 1.36 0 0 Z " fill="#262626" transform="translate(409,274)"/>
</svg>
